<svg xmlns="http://www.w3.org/2000/svg" xmlns:xlink="http://www.w3.org/1999/xlink" id="body_31" preserveAspectRatio="xMinYMin meet" viewBox="0 0 960 720"><defs><clipPath id="1"><path id="" clip-rule="evenodd" d="M0 540L0 0L0 0L720 0L720 0L720 540L720 540L0 540z" /></clipPath><clipPath id="2"><path id="" clip-rule="evenodd" d="M0 539.9999L720 539.9999L720 539.9999L720 -0.0001220703L720 -0.0001220703L0 -0.0001220703z" /></clipPath><clipPath id="3"><path id="" clip-rule="evenodd" d="M0 539.9999L720 539.9999L720 539.9999L720 -6.103516E-05L720 -6.103516E-05L0 -6.103516E-05z" /></clipPath><clipPath id="4"><path id="" clip-rule="evenodd" d="M0 539.9998L720 539.9998L720 539.9998L720 -0.0001831055L720 -0.0001831055L0 -0.0001831055z" /></clipPath><clipPath id="5"><path id="" clip-rule="evenodd" d="M1.0729E-05 540L720 540L720 540L720 0L720 0L1.0729E-05 0z" /></clipPath><clipPath id="6"><path id="" clip-rule="evenodd" d="M0 539.9999L720 539.9999L720 539.9999L720 -6.103516E-05L720 -6.103516E-05L0 -6.103516E-05z" /></clipPath><clipPath id="7"><path id="" clip-rule="evenodd" d="M0 539.9999L720 539.9999L720 539.9999L720 -6.103516E-05L720 -6.103516E-05L0 -6.103516E-05z" /></clipPath><clipPath id="8"><path id="" clip-rule="evenodd" d="M303.24 416.88C 303.24 421.45 306.95 425.16 311.52 425.16L311.52 425.16L408.24 425.16C 412.81 425.16 416.52 421.45 416.52 416.88L416.52 416.88L416.52 383.76C 416.52 379.19 412.81 375.48 408.24 375.48L408.24 375.48L311.52 375.48C 306.95 375.48 303.24 379.19 303.24 383.76z" /></clipPath><linearGradient gradientUnits="userSpaceOnUse" transform="matrix(1 0 0 1 0 0)" id="1500" x1="359.88" y1="325.8" x2="359.88" y2="425.16"><stop stop-color="#9BC1FF" offset="0%" /><stop stop-color="#9BC1FF" offset="1%" /><stop stop-color="#9AC0FF" offset="2%" /><stop stop-color="#9AC0FE" offset="3%" /><stop stop-color="#9AC0FE" offset="4%" /><stop stop-color="#99BFFE" offset="5%" /><stop stop-color="#98BFFD" offset="6%" /><stop stop-color="#98BEFC" offset="7%" /><stop stop-color="#97BDFC" offset="8%" /><stop stop-color="#96BDFB" offset="9%" /><stop stop-color="#95BCFB" offset="10%" /><stop stop-color="#94BBFA" offset="11%" /><stop stop-color="#93BAF9" offset="12%" /><stop stop-color="#91B9F8" offset="13%" /><stop stop-color="#90B7F7" offset="14%" /><stop stop-color="#8EB6F6" offset="15%" /><stop stop-color="#8DB5F5" offset="16%" /><stop stop-color="#8BB3F4" offset="17%" /><stop stop-color="#89B2F2" offset="18%" /><stop stop-color="#87B0F1" offset="19%" /><stop stop-color="#85AEEF" offset="20%" /><stop stop-color="#82ADEE" offset="21%" /><stop stop-color="#80ABED" offset="22%" /><stop stop-color="#7DA8EB" offset="23%" /><stop stop-color="#7AA6E9" offset="24%" /><stop stop-color="#78A4E8" offset="25%" /><stop stop-color="#75A2E6" offset="26%" /><stop stop-color="#72A0E4" offset="27%" /><stop stop-color="#6F9EE3" offset="28%" /><stop stop-color="#6C9CE1" offset="29%" /><stop stop-color="#6A9ADF" offset="30%" /><stop stop-color="#6798DE" offset="31%" /><stop stop-color="#6395DC" offset="32%" /><stop stop-color="#6093DB" offset="33%" /><stop stop-color="#5D91D9" offset="34%" /><stop stop-color="#5B90D8" offset="35%" /><stop stop-color="#588ED7" offset="36%" /><stop stop-color="#558CD5" offset="37%" /><stop stop-color="#538BD4" offset="38%" /><stop stop-color="#5189D3" offset="39%" /><stop stop-color="#4E88D3" offset="40%" /><stop stop-color="#4B86D2" offset="41%" /><stop stop-color="#4985D1" offset="42%" /><stop stop-color="#4884D0" offset="43%" /><stop stop-color="#4683CF" offset="44%" /><stop stop-color="#4583CF" offset="45%" /><stop stop-color="#4382CE" offset="46%" /><stop stop-color="#4281CE" offset="47%" /><stop stop-color="#4181CE" offset="48%" /><stop stop-color="#4080CD" offset="49%" /><stop stop-color="#3F80CD" offset="50%" /><stop stop-color="#4080CD" offset="51%" /><stop stop-color="#4181CE" offset="52%" /><stop stop-color="#4281CE" offset="53%" /><stop stop-color="#4382CE" offset="54%" /><stop stop-color="#4583CF" offset="55%" /><stop stop-color="#4683CF" offset="56%" /><stop stop-color="#4884D0" offset="57%" /><stop stop-color="#4985D1" offset="58%" /><stop stop-color="#4B86D2" offset="59%" /><stop stop-color="#4E88D3" offset="60%" /><stop stop-color="#5189D3" offset="61%" /><stop stop-color="#538BD4" offset="62%" /><stop stop-color="#558CD5" offset="63%" /><stop stop-color="#588ED7" offset="64%" /><stop stop-color="#5B90D8" offset="65%" /><stop stop-color="#5D91D9" offset="66%" /><stop stop-color="#6093DB" offset="67%" /><stop stop-color="#6395DC" offset="68%" /><stop stop-color="#6798DE" offset="69%" /><stop stop-color="#6A9ADF" offset="70%" /><stop stop-color="#6C9CE1" offset="71%" /><stop stop-color="#6F9EE3" offset="72%" /><stop stop-color="#72A0E4" offset="73%" /><stop stop-color="#75A2E6" offset="74%" /><stop stop-color="#78A4E8" offset="75%" /><stop stop-color="#7AA6E9" offset="76%" /><stop stop-color="#7DA8EB" offset="77%" /><stop stop-color="#80ABED" offset="78%" /><stop stop-color="#82ADEE" offset="79%" /><stop stop-color="#85AEEF" offset="80%" /><stop stop-color="#87B0F1" offset="81%" /><stop stop-color="#89B2F2" offset="82%" /><stop stop-color="#8BB3F4" offset="83%" /><stop stop-color="#8DB5F5" offset="84%" /><stop stop-color="#8EB6F6" offset="85%" /><stop stop-color="#90B7F7" offset="86%" /><stop stop-color="#91B9F8" offset="87%" /><stop stop-color="#93BAF9" offset="88%" /><stop stop-color="#94BBFA" offset="89%" /><stop stop-color="#95BCFB" offset="90%" /><stop stop-color="#96BDFB" offset="91%" /><stop stop-color="#97BDFC" offset="92%" /><stop stop-color="#98BEFC" offset="93%" /><stop stop-color="#98BFFD" offset="94%" /><stop stop-color="#99BFFE" offset="95%" /><stop stop-color="#9AC0FE" offset="96%" /><stop stop-color="#9AC0FE" offset="97%" /><stop stop-color="#9AC0FF" offset="98%" /><stop stop-color="#9BC1FF" offset="99%" /><stop stop-color="#9BC1FF" offset="100%" /></linearGradient><clipPath id="9"><path id="" clip-rule="evenodd" d="M303.24 416.88C 303.24 421.45 306.95 425.16 311.52 425.16L311.52 425.16L408.24 425.16C 412.81 425.16 416.52 421.45 416.52 416.88L416.52 416.88L416.52 383.76C 416.52 379.19 412.81 375.48 408.24 375.48L408.24 375.48L311.52 375.48C 306.95 375.48 303.24 379.19 303.24 383.76z" /></clipPath><clipPath id="10"><path id="" clip-rule="evenodd" d="M303.24 416.88C 303.24 421.45 306.95 425.16 311.52 425.16L311.52 425.16L408.24 425.16C 412.81 425.16 416.52 421.45 416.52 416.88L416.52 416.88L416.52 383.76C 416.52 379.19 412.81 375.48 408.24 375.48L408.24 375.48L311.52 375.48C 306.95 375.48 303.24 379.19 303.24 383.76z" /></clipPath><clipPath id="11"><path id="" clip-rule="evenodd" d="M1.0729E-05 540L720 540L720 540L720 0L720 0L1.0729E-05 0z" /></clipPath><clipPath id="12"><path id="" clip-rule="evenodd" d="M0 539.9999L720 539.9999L720 539.9999L720 -6.103516E-05L720 -6.103516E-05L0 -6.103516E-05z" /></clipPath><clipPath id="13"><path id="" clip-rule="evenodd" d="M0 539.9999L720 539.9999L720 539.9999L720 -6.103516E-05L720 -6.103516E-05L0 -6.103516E-05z" /></clipPath><clipPath id="14"><path id="" clip-rule="evenodd" d="M432.72 322.48C 432.72 327.03 436.41 330.72 440.96 330.72L440.96 330.72L538.24 330.72C 542.79 330.72 546.48 327.03 546.48 322.48L546.48 322.48L546.48 289.52C 546.48 284.97 542.79 281.28 538.24 281.28L538.24 281.28L440.96 281.28C 436.41 281.28 432.72 284.97 432.72 289.52z" /></clipPath><linearGradient gradientUnits="userSpaceOnUse" transform="matrix(1 0 0 1 0 0)" id="7356" x1="489.6" y1="231.84" x2="489.6" y2="330.72"><stop stop-color="#9BC1FF" offset="0%" /><stop stop-color="#9BC1FF" offset="1%" /><stop stop-color="#9AC0FF" offset="2%" /><stop stop-color="#9AC0FE" offset="3%" /><stop stop-color="#9AC0FE" offset="4%" /><stop stop-color="#99BFFE" offset="5%" /><stop stop-color="#98BFFD" offset="6%" /><stop stop-color="#98BEFC" offset="7%" /><stop stop-color="#97BDFC" offset="8%" /><stop stop-color="#96BDFB" offset="9%" /><stop stop-color="#95BCFB" offset="10%" /><stop stop-color="#94BBFA" offset="11%" /><stop stop-color="#93BAF9" offset="12%" /><stop stop-color="#91B9F8" offset="13%" /><stop stop-color="#90B7F7" offset="14%" /><stop stop-color="#8EB6F6" offset="15%" /><stop stop-color="#8DB5F5" offset="16%" /><stop stop-color="#8BB3F4" offset="17%" /><stop stop-color="#89B2F2" offset="18%" /><stop stop-color="#87B0F1" offset="19%" /><stop stop-color="#85AEEF" offset="20%" /><stop stop-color="#82ADEE" offset="21%" /><stop stop-color="#80ABED" offset="22%" /><stop stop-color="#7DA8EB" offset="23%" /><stop stop-color="#7AA6E9" offset="24%" /><stop stop-color="#78A4E8" offset="25%" /><stop stop-color="#75A2E6" offset="26%" /><stop stop-color="#72A0E4" offset="27%" /><stop stop-color="#6F9EE3" offset="28%" /><stop stop-color="#6C9CE1" offset="29%" /><stop stop-color="#6A9ADF" offset="30%" /><stop stop-color="#6798DE" offset="31%" /><stop stop-color="#6395DC" offset="32%" /><stop stop-color="#6093DB" offset="33%" /><stop stop-color="#5D91D9" offset="34%" /><stop stop-color="#5B90D8" offset="35%" /><stop stop-color="#588ED7" offset="36%" /><stop stop-color="#558CD5" offset="37%" /><stop stop-color="#538BD4" offset="38%" /><stop stop-color="#5189D3" offset="39%" /><stop stop-color="#4E88D3" offset="40%" /><stop stop-color="#4B86D2" offset="41%" /><stop stop-color="#4985D1" offset="42%" /><stop stop-color="#4884D0" offset="43%" /><stop stop-color="#4683CF" offset="44%" /><stop stop-color="#4583CF" offset="45%" /><stop stop-color="#4382CE" offset="46%" /><stop stop-color="#4281CE" offset="47%" /><stop stop-color="#4181CE" offset="48%" /><stop stop-color="#4080CD" offset="49%" /><stop stop-color="#3F80CD" offset="50%" /><stop stop-color="#4080CD" offset="51%" /><stop stop-color="#4181CE" offset="52%" /><stop stop-color="#4281CE" offset="53%" /><stop stop-color="#4382CE" offset="54%" /><stop stop-color="#4583CF" offset="55%" /><stop stop-color="#4683CF" offset="56%" /><stop stop-color="#4884D0" offset="57%" /><stop stop-color="#4985D1" offset="58%" /><stop stop-color="#4B86D2" offset="59%" /><stop stop-color="#4E88D3" offset="60%" /><stop stop-color="#5189D3" offset="61%" /><stop stop-color="#538BD4" offset="62%" /><stop stop-color="#558CD5" offset="63%" /><stop stop-color="#588ED7" offset="64%" /><stop stop-color="#5B90D8" offset="65%" /><stop stop-color="#5D91D9" offset="66%" /><stop stop-color="#6093DB" offset="67%" /><stop stop-color="#6395DC" offset="68%" /><stop stop-color="#6798DE" offset="69%" /><stop stop-color="#6A9ADF" offset="70%" /><stop stop-color="#6C9CE1" offset="71%" /><stop stop-color="#6F9EE3" offset="72%" /><stop stop-color="#72A0E4" offset="73%" /><stop stop-color="#75A2E6" offset="74%" /><stop stop-color="#78A4E8" offset="75%" /><stop stop-color="#7AA6E9" offset="76%" /><stop stop-color="#7DA8EB" offset="77%" /><stop stop-color="#80ABED" offset="78%" /><stop stop-color="#82ADEE" offset="79%" /><stop stop-color="#85AEEF" offset="80%" /><stop stop-color="#87B0F1" offset="81%" /><stop stop-color="#89B2F2" offset="82%" /><stop stop-color="#8BB3F4" offset="83%" /><stop stop-color="#8DB5F5" offset="84%" /><stop stop-color="#8EB6F6" offset="85%" /><stop stop-color="#90B7F7" offset="86%" /><stop stop-color="#91B9F8" offset="87%" /><stop stop-color="#93BAF9" offset="88%" /><stop stop-color="#94BBFA" offset="89%" /><stop stop-color="#95BCFB" offset="90%" /><stop stop-color="#96BDFB" offset="91%" /><stop stop-color="#97BDFC" offset="92%" /><stop stop-color="#98BEFC" offset="93%" /><stop stop-color="#98BFFD" offset="94%" /><stop stop-color="#99BFFE" offset="95%" /><stop stop-color="#9AC0FE" offset="96%" /><stop stop-color="#9AC0FE" offset="97%" /><stop stop-color="#9AC0FF" offset="98%" /><stop stop-color="#9BC1FF" offset="99%" /><stop stop-color="#9BC1FF" offset="100%" /></linearGradient><clipPath id="15"><path id="" clip-rule="evenodd" d="M432.72 322.48C 432.72 327.03 436.41 330.72 440.96 330.72L440.96 330.72L538.24 330.72C 542.79 330.72 546.48 327.03 546.48 322.48L546.48 322.48L546.48 289.52C 546.48 284.97 542.79 281.28 538.24 281.28L538.24 281.28L440.96 281.28C 436.41 281.28 432.72 284.97 432.72 289.52z" /></clipPath><clipPath id="16"><path id="" clip-rule="evenodd" d="M432.72 322.48C 432.72 327.03 436.41 330.72 440.96 330.72L440.96 330.72L538.24 330.72C 542.79 330.72 546.48 327.03 546.48 322.48L546.48 322.48L546.48 289.52C 546.48 284.97 542.79 281.28 538.24 281.28L538.24 281.28L440.96 281.28C 436.41 281.28 432.72 284.97 432.72 289.52z" /></clipPath><clipPath id="17"><path id="" clip-rule="evenodd" d="M1.0729E-05 540L720 540L720 540L720 0L720 0L1.0729E-05 0z" /></clipPath><clipPath id="18"><path id="" clip-rule="evenodd" d="M0 539.9999L720 539.9999L720 539.9999L720 -6.103516E-05L720 -6.103516E-05L0 -6.103516E-05z" /></clipPath><clipPath id="19"><path id="" clip-rule="evenodd" d="M0 539.9999L720 539.9999L720 539.9999L720 -6.103516E-05L720 -6.103516E-05L0 -6.103516E-05z" /></clipPath><clipPath id="20"><path id="" clip-rule="evenodd" d="M383.52 170.04C 383.52 174.61 387.23 178.32 391.8 178.32L391.8 178.32L488.4 178.32C 492.97 178.32 496.68 174.61 496.68 170.04L496.68 170.04L496.68 136.92C 496.68 132.35 492.97 128.64 488.4 128.64L488.4 128.64L391.8 128.64C 387.23 128.64 383.52 132.35 383.52 136.92z" /></clipPath><linearGradient gradientUnits="userSpaceOnUse" transform="matrix(1 0 0 1 0 0)" id="13206" x1="440.1" y1="128.64" x2="440.1" y2="228"><stop stop-color="#3F80CD" offset="0%" /><stop stop-color="#4080CD" offset="1%" /><stop stop-color="#4181CE" offset="2%" /><stop stop-color="#4281CE" offset="3%" /><stop stop-color="#4382CE" offset="4%" /><stop stop-color="#4583CF" offset="5%" /><stop stop-color="#4684CF" offset="6%" /><stop stop-color="#4885D0" offset="7%" /><stop stop-color="#4A86D1" offset="8%" /><stop stop-color="#4C87D2" offset="9%" /><stop stop-color="#4E88D3" offset="10%" /><stop stop-color="#5189D3" offset="11%" /><stop stop-color="#538BD4" offset="12%" /><stop stop-color="#558CD5" offset="13%" /><stop stop-color="#598ED7" offset="14%" /><stop stop-color="#5B90D8" offset="15%" /><stop stop-color="#5E92DA" offset="16%" /><stop stop-color="#6194DB" offset="17%" /><stop stop-color="#6395DC" offset="18%" /><stop stop-color="#6798DE" offset="19%" /><stop stop-color="#6A9ADF" offset="20%" /><stop stop-color="#6C9CE1" offset="21%" /><stop stop-color="#6F9EE3" offset="22%" /><stop stop-color="#73A0E5" offset="23%" /><stop stop-color="#75A3E6" offset="24%" /><stop stop-color="#78A5E8" offset="25%" /><stop stop-color="#7BA7E9" offset="26%" /><stop stop-color="#7DA9EB" offset="27%" /><stop stop-color="#80ABED" offset="28%" /><stop stop-color="#82ADEE" offset="29%" /><stop stop-color="#85AEEF" offset="30%" /><stop stop-color="#87B0F1" offset="31%" /><stop stop-color="#89B2F3" offset="32%" /><stop stop-color="#8BB4F4" offset="33%" /><stop stop-color="#8DB5F5" offset="34%" /><stop stop-color="#8EB6F6" offset="35%" /><stop stop-color="#90B8F7" offset="36%" /><stop stop-color="#91B9F8" offset="37%" /><stop stop-color="#93BAF9" offset="38%" /><stop stop-color="#94BBFA" offset="39%" /><stop stop-color="#95BCFB" offset="40%" /><stop stop-color="#96BDFB" offset="41%" /><stop stop-color="#97BEFC" offset="42%" /><stop stop-color="#98BEFD" offset="43%" /><stop stop-color="#98BFFD" offset="44%" /><stop stop-color="#99BFFE" offset="45%" /><stop stop-color="#9AC0FE" offset="46%" /><stop stop-color="#9AC0FE" offset="47%" /><stop stop-color="#9AC0FF" offset="48%" /><stop stop-color="#9BC1FF" offset="49%" /><stop stop-color="#9BC1FF" offset="50%" /><stop stop-color="#9BC1FF" offset="51%" /><stop stop-color="#9AC0FF" offset="52%" /><stop stop-color="#9AC0FE" offset="53%" /><stop stop-color="#9AC0FE" offset="54%" /><stop stop-color="#99BFFE" offset="55%" /><stop stop-color="#98BFFD" offset="56%" /><stop stop-color="#98BEFD" offset="57%" /><stop stop-color="#97BEFC" offset="58%" /><stop stop-color="#96BDFB" offset="59%" /><stop stop-color="#95BCFB" offset="60%" /><stop stop-color="#94BBFA" offset="61%" /><stop stop-color="#93BAF9" offset="62%" /><stop stop-color="#91B9F8" offset="63%" /><stop stop-color="#90B8F7" offset="64%" /><stop stop-color="#8EB6F6" offset="65%" /><stop stop-color="#8DB5F5" offset="66%" /><stop stop-color="#8BB4F4" offset="67%" /><stop stop-color="#89B2F3" offset="68%" /><stop stop-color="#87B0F1" offset="69%" /><stop stop-color="#85AEEF" offset="70%" /><stop stop-color="#82ADEE" offset="71%" /><stop stop-color="#80ABED" offset="72%" /><stop stop-color="#7DA9EB" offset="73%" /><stop stop-color="#7BA7E9" offset="74%" /><stop stop-color="#78A5E8" offset="75%" /><stop stop-color="#75A3E6" offset="76%" /><stop stop-color="#73A0E5" offset="77%" /><stop stop-color="#6F9EE3" offset="78%" /><stop stop-color="#6C9CE1" offset="79%" /><stop stop-color="#6A9ADF" offset="80%" /><stop stop-color="#6798DE" offset="81%" /><stop stop-color="#6395DC" offset="82%" /><stop stop-color="#6194DB" offset="83%" /><stop stop-color="#5E92DA" offset="84%" /><stop stop-color="#5B90D8" offset="85%" /><stop stop-color="#598ED7" offset="86%" /><stop stop-color="#558CD5" offset="87%" /><stop stop-color="#538BD4" offset="88%" /><stop stop-color="#5189D3" offset="89%" /><stop stop-color="#4E88D3" offset="90%" /><stop stop-color="#4C87D2" offset="91%" /><stop stop-color="#4A86D1" offset="92%" /><stop stop-color="#4885D0" offset="93%" /><stop stop-color="#4684CF" offset="94%" /><stop stop-color="#4583CF" offset="95%" /><stop stop-color="#4382CE" offset="96%" /><stop stop-color="#4281CE" offset="97%" /><stop stop-color="#4181CE" offset="98%" /><stop stop-color="#4080CD" offset="99%" /><stop stop-color="#3F80CD" offset="100%" /></linearGradient><clipPath id="21"><path id="" clip-rule="evenodd" d="M383.52 170.04C 383.52 174.61 387.23 178.32 391.8 178.32L391.8 178.32L488.4 178.32C 492.97 178.32 496.68 174.61 496.68 170.04L496.68 170.04L496.68 136.92C 496.68 132.35 492.97 128.64 488.4 128.64L488.4 128.64L391.8 128.64C 387.23 128.64 383.52 132.35 383.52 136.92z" /></clipPath><clipPath id="22"><path id="" clip-rule="evenodd" d="M383.52 170.04C 383.52 174.61 387.23 178.32 391.8 178.32L391.8 178.32L488.4 178.32C 492.97 178.32 496.68 174.61 496.68 170.04L496.68 170.04L496.68 136.92C 496.68 132.35 492.97 128.64 488.4 128.64L488.4 128.64L391.8 128.64C 387.23 128.64 383.52 132.35 383.52 136.92z" /></clipPath><clipPath id="23"><path id="" clip-rule="evenodd" d="M1.0729E-05 540L720 540L720 540L720 0L720 0L1.0729E-05 0z" /></clipPath><clipPath id="24"><path id="" clip-rule="evenodd" d="M0 539.9999L720 539.9999L720 539.9999L720 -6.103516E-05L720 -6.103516E-05L0 -6.103516E-05z" /></clipPath><clipPath id="25"><path id="" clip-rule="evenodd" d="M0 539.9999L720 539.9999L720 539.9999L720 -6.103516E-05L720 -6.103516E-05L0 -6.103516E-05z" /></clipPath><clipPath id="26"><path id="" clip-rule="evenodd" d="M222.72 170.04C 222.72 174.61 226.43 178.32 231 178.32L231 178.32L328.44 178.32C 333.01 178.32 336.72 174.61 336.72 170.04L336.72 170.04L336.72 136.92C 336.72 132.35 333.01 128.64 328.44 128.64L328.44 128.64L231 128.64C 226.43 128.64 222.72 132.35 222.72 136.92z" /></clipPath><linearGradient gradientUnits="userSpaceOnUse" transform="matrix(1 0 0 1 0 0)" id="19039" x1="279.72" y1="128.64" x2="279.72" y2="228"><stop stop-color="#3F80CD" offset="0%" /><stop stop-color="#4080CD" offset="1%" /><stop stop-color="#4181CE" offset="2%" /><stop stop-color="#4281CE" offset="3%" /><stop stop-color="#4382CE" offset="4%" /><stop stop-color="#4583CF" offset="5%" /><stop stop-color="#4684CF" offset="6%" /><stop stop-color="#4885D0" offset="7%" /><stop stop-color="#4A86D1" offset="8%" /><stop stop-color="#4C87D2" offset="9%" /><stop stop-color="#4E88D3" offset="10%" /><stop stop-color="#5189D3" offset="11%" /><stop stop-color="#538BD4" offset="12%" /><stop stop-color="#558CD5" offset="13%" /><stop stop-color="#598ED7" offset="14%" /><stop stop-color="#5B90D8" offset="15%" /><stop stop-color="#5E92DA" offset="16%" /><stop stop-color="#6194DB" offset="17%" /><stop stop-color="#6395DC" offset="18%" /><stop stop-color="#6798DE" offset="19%" /><stop stop-color="#6A9ADF" offset="20%" /><stop stop-color="#6C9CE1" offset="21%" /><stop stop-color="#6F9EE3" offset="22%" /><stop stop-color="#73A0E5" offset="23%" /><stop stop-color="#75A3E6" offset="24%" /><stop stop-color="#78A5E8" offset="25%" /><stop stop-color="#7BA7E9" offset="26%" /><stop stop-color="#7DA9EB" offset="27%" /><stop stop-color="#80ABED" offset="28%" /><stop stop-color="#82ADEE" offset="29%" /><stop stop-color="#85AEEF" offset="30%" /><stop stop-color="#87B0F1" offset="31%" /><stop stop-color="#89B2F3" offset="32%" /><stop stop-color="#8BB4F4" offset="33%" /><stop stop-color="#8DB5F5" offset="34%" /><stop stop-color="#8EB6F6" offset="35%" /><stop stop-color="#90B8F7" offset="36%" /><stop stop-color="#91B9F8" offset="37%" /><stop stop-color="#93BAF9" offset="38%" /><stop stop-color="#94BBFA" offset="39%" /><stop stop-color="#95BCFB" offset="40%" /><stop stop-color="#96BDFB" offset="41%" /><stop stop-color="#97BEFC" offset="42%" /><stop stop-color="#98BEFD" offset="43%" /><stop stop-color="#98BFFD" offset="44%" /><stop stop-color="#99BFFE" offset="45%" /><stop stop-color="#9AC0FE" offset="46%" /><stop stop-color="#9AC0FE" offset="47%" /><stop stop-color="#9AC0FF" offset="48%" /><stop stop-color="#9BC1FF" offset="49%" /><stop stop-color="#9BC1FF" offset="50%" /><stop stop-color="#9BC1FF" offset="51%" /><stop stop-color="#9AC0FF" offset="52%" /><stop stop-color="#9AC0FE" offset="53%" /><stop stop-color="#9AC0FE" offset="54%" /><stop stop-color="#99BFFE" offset="55%" /><stop stop-color="#98BFFD" offset="56%" /><stop stop-color="#98BEFD" offset="57%" /><stop stop-color="#97BEFC" offset="58%" /><stop stop-color="#96BDFB" offset="59%" /><stop stop-color="#95BCFB" offset="60%" /><stop stop-color="#94BBFA" offset="61%" /><stop stop-color="#93BAF9" offset="62%" /><stop stop-color="#91B9F8" offset="63%" /><stop stop-color="#90B8F7" offset="64%" /><stop stop-color="#8EB6F6" offset="65%" /><stop stop-color="#8DB5F5" offset="66%" /><stop stop-color="#8BB4F4" offset="67%" /><stop stop-color="#89B2F3" offset="68%" /><stop stop-color="#87B0F1" offset="69%" /><stop stop-color="#85AEEF" offset="70%" /><stop stop-color="#82ADEE" offset="71%" /><stop stop-color="#80ABED" offset="72%" /><stop stop-color="#7DA9EB" offset="73%" /><stop stop-color="#7BA7E9" offset="74%" /><stop stop-color="#78A5E8" offset="75%" /><stop stop-color="#75A3E6" offset="76%" /><stop stop-color="#73A0E5" offset="77%" /><stop stop-color="#6F9EE3" offset="78%" /><stop stop-color="#6C9CE1" offset="79%" /><stop stop-color="#6A9ADF" offset="80%" /><stop stop-color="#6798DE" offset="81%" /><stop stop-color="#6395DC" offset="82%" /><stop stop-color="#6194DB" offset="83%" /><stop stop-color="#5E92DA" offset="84%" /><stop stop-color="#5B90D8" offset="85%" /><stop stop-color="#598ED7" offset="86%" /><stop stop-color="#558CD5" offset="87%" /><stop stop-color="#538BD4" offset="88%" /><stop stop-color="#5189D3" offset="89%" /><stop stop-color="#4E88D3" offset="90%" /><stop stop-color="#4C87D2" offset="91%" /><stop stop-color="#4A86D1" offset="92%" /><stop stop-color="#4885D0" offset="93%" /><stop stop-color="#4684CF" offset="94%" /><stop stop-color="#4583CF" offset="95%" /><stop stop-color="#4382CE" offset="96%" /><stop stop-color="#4281CE" offset="97%" /><stop stop-color="#4181CE" offset="98%" /><stop stop-color="#4080CD" offset="99%" /><stop stop-color="#3F80CD" offset="100%" /></linearGradient><clipPath id="27"><path id="" clip-rule="evenodd" d="M222.72 170.04C 222.72 174.61 226.43 178.32 231 178.32L231 178.32L328.44 178.32C 333.01 178.32 336.72 174.61 336.72 170.04L336.72 170.04L336.72 136.92C 336.72 132.35 333.01 128.64 328.44 128.64L328.44 128.64L231 128.64C 226.43 128.64 222.72 132.35 222.72 136.92z" /></clipPath><clipPath id="28"><path id="" clip-rule="evenodd" d="M222.72 170.04C 222.72 174.61 226.43 178.32 231 178.32L231 178.32L328.44 178.32C 333.01 178.32 336.72 174.61 336.72 170.04L336.72 170.04L336.72 136.92C 336.72 132.35 333.01 128.64 328.44 128.64L328.44 128.64L231 128.64C 226.43 128.64 222.72 132.35 222.72 136.92z" /></clipPath><clipPath id="29"><path id="" clip-rule="evenodd" d="M1.0729E-05 540L720 540L720 540L720 0L720 0L1.0729E-05 0z" /></clipPath><clipPath id="30"><path id="" clip-rule="evenodd" d="M0 539.9999L720 539.9999L720 539.9999L720 -6.103516E-05L720 -6.103516E-05L0 -6.103516E-05z" /></clipPath><clipPath id="31"><path id="" clip-rule="evenodd" d="M0 539.9999L720 539.9999L720 539.9999L720 -6.103516E-05L720 -6.103516E-05L0 -6.103516E-05z" /></clipPath><clipPath id="32"><path id="" clip-rule="evenodd" d="M173.52 322.56C 173.52 327.13 177.23 330.84 181.8 330.84L181.8 330.84L278.52 330.84C 283.09 330.84 286.8 327.13 286.8 322.56L286.8 322.56L286.8 289.44C 286.8 284.87 283.09 281.16 278.52 281.16L278.52 281.16L181.8 281.16C 177.23 281.16 173.52 284.87 173.52 289.44z" /></clipPath><linearGradient gradientUnits="userSpaceOnUse" transform="matrix(1 0 0 1 0 0)" id="24869" x1="230.16" y1="231.48" x2="230.16" y2="330.84"><stop stop-color="#9BC1FF" offset="0%" /><stop stop-color="#9BC1FF" offset="1%" /><stop stop-color="#9AC0FF" offset="2%" /><stop stop-color="#9AC0FE" offset="3%" /><stop stop-color="#9AC0FE" offset="4%" /><stop stop-color="#99BFFE" offset="5%" /><stop stop-color="#98BFFD" offset="6%" /><stop stop-color="#98BEFC" offset="7%" /><stop stop-color="#97BDFC" offset="8%" /><stop stop-color="#96BDFB" offset="9%" /><stop stop-color="#95BCFB" offset="10%" /><stop stop-color="#94BBFA" offset="11%" /><stop stop-color="#93BAF9" offset="12%" /><stop stop-color="#91B9F8" offset="13%" /><stop stop-color="#90B7F7" offset="14%" /><stop stop-color="#8EB6F6" offset="15%" /><stop stop-color="#8DB5F5" offset="16%" /><stop stop-color="#8BB3F4" offset="17%" /><stop stop-color="#89B2F2" offset="18%" /><stop stop-color="#87B0F1" offset="19%" /><stop stop-color="#85AEEF" offset="20%" /><stop stop-color="#82ADEE" offset="21%" /><stop stop-color="#80ABED" offset="22%" /><stop stop-color="#7DA8EB" offset="23%" /><stop stop-color="#7AA6E9" offset="24%" /><stop stop-color="#78A4E8" offset="25%" /><stop stop-color="#75A2E6" offset="26%" /><stop stop-color="#72A0E4" offset="27%" /><stop stop-color="#6F9EE3" offset="28%" /><stop stop-color="#6C9CE1" offset="29%" /><stop stop-color="#6A9ADF" offset="30%" /><stop stop-color="#6798DE" offset="31%" /><stop stop-color="#6395DC" offset="32%" /><stop stop-color="#6093DB" offset="33%" /><stop stop-color="#5D91D9" offset="34%" /><stop stop-color="#5B90D8" offset="35%" /><stop stop-color="#588ED7" offset="36%" /><stop stop-color="#558CD5" offset="37%" /><stop stop-color="#538BD4" offset="38%" /><stop stop-color="#5189D3" offset="39%" /><stop stop-color="#4E88D3" offset="40%" /><stop stop-color="#4B86D2" offset="41%" /><stop stop-color="#4985D1" offset="42%" /><stop stop-color="#4884D0" offset="43%" /><stop stop-color="#4683CF" offset="44%" /><stop stop-color="#4583CF" offset="45%" /><stop stop-color="#4382CE" offset="46%" /><stop stop-color="#4281CE" offset="47%" /><stop stop-color="#4181CE" offset="48%" /><stop stop-color="#4080CD" offset="49%" /><stop stop-color="#3F80CD" offset="50%" /><stop stop-color="#4080CD" offset="51%" /><stop stop-color="#4181CE" offset="52%" /><stop stop-color="#4281CE" offset="53%" /><stop stop-color="#4382CE" offset="54%" /><stop stop-color="#4583CF" offset="55%" /><stop stop-color="#4683CF" offset="56%" /><stop stop-color="#4884D0" offset="57%" /><stop stop-color="#4985D1" offset="58%" /><stop stop-color="#4B86D2" offset="59%" /><stop stop-color="#4E88D3" offset="60%" /><stop stop-color="#5189D3" offset="61%" /><stop stop-color="#538BD4" offset="62%" /><stop stop-color="#558CD5" offset="63%" /><stop stop-color="#588ED7" offset="64%" /><stop stop-color="#5B90D8" offset="65%" /><stop stop-color="#5D91D9" offset="66%" /><stop stop-color="#6093DB" offset="67%" /><stop stop-color="#6395DC" offset="68%" /><stop stop-color="#6798DE" offset="69%" /><stop stop-color="#6A9ADF" offset="70%" /><stop stop-color="#6C9CE1" offset="71%" /><stop stop-color="#6F9EE3" offset="72%" /><stop stop-color="#72A0E4" offset="73%" /><stop stop-color="#75A2E6" offset="74%" /><stop stop-color="#78A4E8" offset="75%" /><stop stop-color="#7AA6E9" offset="76%" /><stop stop-color="#7DA8EB" offset="77%" /><stop stop-color="#80ABED" offset="78%" /><stop stop-color="#82ADEE" offset="79%" /><stop stop-color="#85AEEF" offset="80%" /><stop stop-color="#87B0F1" offset="81%" /><stop stop-color="#89B2F2" offset="82%" /><stop stop-color="#8BB3F4" offset="83%" /><stop stop-color="#8DB5F5" offset="84%" /><stop stop-color="#8EB6F6" offset="85%" /><stop stop-color="#90B7F7" offset="86%" /><stop stop-color="#91B9F8" offset="87%" /><stop stop-color="#93BAF9" offset="88%" /><stop stop-color="#94BBFA" offset="89%" /><stop stop-color="#95BCFB" offset="90%" /><stop stop-color="#96BDFB" offset="91%" /><stop stop-color="#97BDFC" offset="92%" /><stop stop-color="#98BEFC" offset="93%" /><stop stop-color="#98BFFD" offset="94%" /><stop stop-color="#99BFFE" offset="95%" /><stop stop-color="#9AC0FE" offset="96%" /><stop stop-color="#9AC0FE" offset="97%" /><stop stop-color="#9AC0FF" offset="98%" /><stop stop-color="#9BC1FF" offset="99%" /><stop stop-color="#9BC1FF" offset="100%" /></linearGradient><clipPath id="33"><path id="" clip-rule="evenodd" d="M173.52 322.56C 173.52 327.13 177.23 330.84 181.8 330.84L181.8 330.84L278.52 330.84C 283.09 330.84 286.8 327.13 286.8 322.56L286.8 322.56L286.8 289.44C 286.8 284.87 283.09 281.16 278.52 281.16L278.52 281.16L181.8 281.16C 177.23 281.16 173.52 284.87 173.52 289.44z" /></clipPath><clipPath id="34"><path id="" clip-rule="evenodd" d="M173.52 322.56C 173.52 327.13 177.23 330.84 181.8 330.84L181.8 330.84L278.52 330.84C 283.09 330.84 286.8 327.13 286.8 322.56L286.8 322.56L286.8 289.44C 286.8 284.87 283.09 281.16 278.52 281.16L278.52 281.16L181.8 281.16C 177.23 281.16 173.52 284.87 173.52 289.44z" /></clipPath><clipPath id="35"><path id="" clip-rule="evenodd" d="M1.0729E-05 540L720 540L720 540L720 0L720 0L1.0729E-05 0z" /></clipPath><clipPath id="36"><path id="" clip-rule="evenodd" d="M1.0729E-05 0L720 0L720 0L720 539.9999L720 539.9999L1.0729E-05 539.9999L1.0729E-05 539.9999L1.0729E-05 0zM361.86 220.56C 333.46 220.56 310.44 242.7 310.44 270C 310.44 297.3 333.46 319.44 361.86 319.44C 390.26 319.44 413.28 297.3 413.28 270C 413.28 242.7 390.26 220.56 361.86 220.56z" /></clipPath><clipPath id="37"><path id="" clip-rule="evenodd" d="M1.0729E-05 0L720 0L720 0L720 539.9999L720 539.9999L1.0729E-05 539.9999L1.0729E-05 539.9999L1.0729E-05 0zM361.86 220.56C 333.46 220.56 310.44 242.7 310.44 270C 310.44 297.3 333.46 319.44 361.86 319.44C 390.26 319.44 413.28 297.3 413.28 270C 413.28 242.7 390.26 220.56 361.86 220.56z" /></clipPath><clipPath id="38"><path id="" clip-rule="evenodd" d="M310.44 270C 310.44 297.3 333.46 319.44 361.86 319.44C 390.26 319.44 413.28 297.3 413.28 270C 413.28 242.7 390.26 220.56 361.86 220.56C 333.46 220.56 310.44 242.7 310.44 270z" /></clipPath><linearGradient gradientUnits="userSpaceOnUse" transform="matrix(1 0 0 1 0 0)" id="30999" x1="361.86" y1="121.68" x2="361.86" y2="319.44"><stop stop-color="#9BC1FF" offset="0%" /><stop stop-color="#9BC1FF" offset="1%" /><stop stop-color="#9AC0FF" offset="2%" /><stop stop-color="#9AC0FE" offset="3%" /><stop stop-color="#9AC0FE" offset="4%" /><stop stop-color="#99BFFE" offset="5%" /><stop stop-color="#98BFFD" offset="6%" /><stop stop-color="#98BEFC" offset="7%" /><stop stop-color="#97BDFC" offset="8%" /><stop stop-color="#96BDFB" offset="9%" /><stop stop-color="#95BCFB" offset="10%" /><stop stop-color="#94BBFA" offset="11%" /><stop stop-color="#93BAF9" offset="12%" /><stop stop-color="#91B9F8" offset="13%" /><stop stop-color="#90B7F7" offset="14%" /><stop stop-color="#8EB6F6" offset="15%" /><stop stop-color="#8DB5F5" offset="16%" /><stop stop-color="#8BB3F4" offset="17%" /><stop stop-color="#89B2F2" offset="18%" /><stop stop-color="#87B0F1" offset="19%" /><stop stop-color="#85AEEF" offset="20%" /><stop stop-color="#82ADEE" offset="21%" /><stop stop-color="#80ABED" offset="22%" /><stop stop-color="#7DA8EB" offset="23%" /><stop stop-color="#7AA6E9" offset="24%" /><stop stop-color="#78A4E8" offset="25%" /><stop stop-color="#75A2E6" offset="26%" /><stop stop-color="#72A0E4" offset="27%" /><stop stop-color="#6F9EE3" offset="28%" /><stop stop-color="#6C9CE1" offset="29%" /><stop stop-color="#6A9ADF" offset="30%" /><stop stop-color="#6798DE" offset="31%" /><stop stop-color="#6395DC" offset="32%" /><stop stop-color="#6093DB" offset="33%" /><stop stop-color="#5D91D9" offset="34%" /><stop stop-color="#5B90D8" offset="35%" /><stop stop-color="#588ED7" offset="36%" /><stop stop-color="#558CD5" offset="37%" /><stop stop-color="#538BD4" offset="38%" /><stop stop-color="#5189D3" offset="39%" /><stop stop-color="#4E88D3" offset="40%" /><stop stop-color="#4B86D2" offset="41%" /><stop stop-color="#4985D1" offset="42%" /><stop stop-color="#4884D0" offset="43%" /><stop stop-color="#4683CF" offset="44%" /><stop stop-color="#4583CF" offset="45%" /><stop stop-color="#4382CE" offset="46%" /><stop stop-color="#4281CE" offset="47%" /><stop stop-color="#4181CE" offset="48%" /><stop stop-color="#4080CD" offset="49%" /><stop stop-color="#3F80CD" offset="50%" /><stop stop-color="#4080CD" offset="51%" /><stop stop-color="#4181CE" offset="52%" /><stop stop-color="#4281CE" offset="53%" /><stop stop-color="#4382CE" offset="54%" /><stop stop-color="#4583CF" offset="55%" /><stop stop-color="#4683CF" offset="56%" /><stop stop-color="#4884D0" offset="57%" /><stop stop-color="#4985D1" offset="58%" /><stop stop-color="#4B86D2" offset="59%" /><stop stop-color="#4E88D3" offset="60%" /><stop stop-color="#5189D3" offset="61%" /><stop stop-color="#538BD4" offset="62%" /><stop stop-color="#558CD5" offset="63%" /><stop stop-color="#588ED7" offset="64%" /><stop stop-color="#5B90D8" offset="65%" /><stop stop-color="#5D91D9" offset="66%" /><stop stop-color="#6093DB" offset="67%" /><stop stop-color="#6395DC" offset="68%" /><stop stop-color="#6798DE" offset="69%" /><stop stop-color="#6A9ADF" offset="70%" /><stop stop-color="#6C9CE1" offset="71%" /><stop stop-color="#6F9EE3" offset="72%" /><stop stop-color="#72A0E4" offset="73%" /><stop stop-color="#75A2E6" offset="74%" /><stop stop-color="#78A4E8" offset="75%" /><stop stop-color="#7AA6E9" offset="76%" /><stop stop-color="#7DA8EB" offset="77%" /><stop stop-color="#80ABED" offset="78%" /><stop stop-color="#82ADEE" offset="79%" /><stop stop-color="#85AEEF" offset="80%" /><stop stop-color="#87B0F1" offset="81%" /><stop stop-color="#89B2F2" offset="82%" /><stop stop-color="#8BB3F4" offset="83%" /><stop stop-color="#8DB5F5" offset="84%" /><stop stop-color="#8EB6F6" offset="85%" /><stop stop-color="#90B7F7" offset="86%" /><stop stop-color="#91B9F8" offset="87%" /><stop stop-color="#93BAF9" offset="88%" /><stop stop-color="#94BBFA" offset="89%" /><stop stop-color="#95BCFB" offset="90%" /><stop stop-color="#96BDFB" offset="91%" /><stop stop-color="#97BDFC" offset="92%" /><stop stop-color="#98BEFC" offset="93%" /><stop stop-color="#98BFFD" offset="94%" /><stop stop-color="#99BFFE" offset="95%" /><stop stop-color="#9AC0FE" offset="96%" /><stop stop-color="#9AC0FE" offset="97%" /><stop stop-color="#9AC0FF" offset="98%" /><stop stop-color="#9BC1FF" offset="99%" /><stop stop-color="#9BC1FF" offset="100%" /></linearGradient><clipPath id="39"><path id="" clip-rule="evenodd" d="M310.44 270C 310.44 297.3 333.46 319.44 361.86 319.44C 390.26 319.44 413.28 297.3 413.28 270C 413.28 242.7 390.26 220.56 361.86 220.56C 333.46 220.56 310.44 242.7 310.44 270z" /></clipPath><clipPath id="40"><path id="" clip-rule="evenodd" d="M310.44 270C 310.44 297.3 333.46 319.44 361.86 319.44C 390.26 319.44 413.28 297.3 413.28 270C 413.28 242.7 390.26 220.56 361.86 220.56C 333.46 220.56 310.44 242.7 310.44 270z" /></clipPath><clipPath id="41"><path id="" clip-rule="evenodd" d="M1.0729E-05 540L720 540L720 540L720 0L720 0L1.0729E-05 0z" /></clipPath></defs><g transform="matrix(1.333333 0 0 1.333333 0 0)"><g clip-path="url(#1)"><g clip-path="url(#2)"><path id="1" transform="matrix(1 0 0 -1 0 540)" d="M0 6.1035E-05L720 6.1035E-05L720 6.1035E-05L720 540.0001L720 540.0001L0 540.0001z" stroke="none" fill="#FFFFFF" fill-rule="evenodd" /></g><g clip-path="url(#3)"><g transform="matrix(0.5623125 0 0 0.56225 0.12 -6.103516E-05)"><g transform="matrix(1 0 0 1 0 0)"><image x="0" y="0" xlink:href="img_01.png" width="1280" height="960" /></g></g></g><g clip-path="url(#4)"><g transform="matrix(0.5623125 0 0 0.56225 0.12 1.320007)"><g transform="matrix(1 0 0 1 0 0)"><image x="0" y="0" xlink:href="img_03.png" width="1280" height="960" /></g></g></g><g clip-path="url(#5)"></g><g clip-path="url(#6)"><g transform="matrix(0.7185629 0 0 0.7230769 299.88 113.28)"><g transform="matrix(1 0 0 1 0 0)"><image x="0" y="0" xlink:href="img_18.png" width="167" height="78" /></g></g></g><g clip-path="url(#7)"><g transform="matrix(0.7192105 0 0 0.7177777 305.16 123.48)"><g transform="matrix(1 0 0 1 0 0)"><image x="0" y="0" xlink:href="img_19.png" width="152" height="54" /></g></g></g><path id="8" transform="matrix(1 0 0 -1 0 540)" clip-path="url(#8)" d="M0 325.8L720 325.8L720 325.8L720 425.16L720 425.16L0 425.16" stroke="none" fill="url(#1500)" /><path id="9" transform="matrix(1 0 0 -1 0 540)" clip-path="url(#9)" d="M0 325.8L720 325.8L720 325.8L720 0L720 0L0 0" stroke="none" fill="#9BC1FF" fill-rule="evenodd" /><path id="10" transform="matrix(1 0 0 -1 0 540)" clip-path="url(#10)" d="M0 425.16L720 425.16L720 425.16L720 540L720 540L0 540" stroke="none" fill="#9BC1FF" fill-rule="evenodd" /><path id="11" transform="matrix(1 0 0 -1 0 540)" d="M303.24 416.88C 303.24 421.45 306.95 425.16 311.52 425.16L311.52 425.16L408.24 425.16C 412.81 425.16 416.52 421.45 416.52 416.88L416.52 416.88L416.52 383.76C 416.52 379.19 412.81 375.48 408.24 375.48L408.24 375.48L311.52 375.48C 306.95 375.48 303.24 379.19 303.24 383.76z" stroke="none" fill="none" /><g clip-path="url(#11)"></g><path id="18" transform="matrix(1 0 0 -1 0 540)" d="M417.26 387.66C 442.97 375.74 464.33 356.11 478.37 331.49" stroke="#4F81BD" stroke-width="0.72" fill="none" /><g clip-path="url(#12)"><g transform="matrix(0.7214372 0 0 0.72 429.36 207.72)"><g transform="matrix(1 0 0 1 0 0)"><image x="0" y="0" xlink:href="img_20.png" width="167" height="78" /></g></g></g><g clip-path="url(#13)"><g transform="matrix(0.7192105 0 0 0.72 435 217.68)"><g transform="matrix(1 0 0 1 0 0)"><image x="0" y="0" xlink:href="img_21.png" width="152" height="54" /></g></g></g><path id="21" transform="matrix(1 0 0 -1 0 540)" clip-path="url(#14)" d="M0 231.84L720 231.84L720 231.84L720 330.72L720 330.72L0 330.72" stroke="none" fill="url(#7356)" /><path id="22" transform="matrix(1 0 0 -1 0 540)" clip-path="url(#15)" d="M0 231.84L720 231.84L720 231.84L720 0L720 0L0 0" stroke="none" fill="#9BC1FF" fill-rule="evenodd" /><path id="23" transform="matrix(1 0 0 -1 0 540)" clip-path="url(#16)" d="M0 330.72L720 330.72L720 330.72L720 540L720 540L0 540" stroke="none" fill="#9BC1FF" fill-rule="evenodd" /><path id="24" transform="matrix(1 0 0 -1 0 540)" d="M432.72 322.48C 432.72 327.03 436.41 330.72 440.96 330.72L440.96 330.72L538.24 330.72C 542.79 330.72 546.48 327.03 546.48 322.48L546.48 322.48L546.48 289.52C 546.48 284.97 542.79 281.28 538.24 281.28L538.24 281.28L440.96 281.28C 436.41 281.28 432.72 284.97 432.72 289.52z" stroke="none" fill="none" /><g clip-path="url(#17)"></g><path id="31" transform="matrix(1 0 0 -1 0 540)" d="M495.3 280.29C 499.68 244.14 489.42 207.75 466.82 179.2" stroke="#4F81BD" stroke-width="0.72" fill="none" /><g clip-path="url(#18)"><g transform="matrix(0.7178443 0 0 0.7230769 380.16 360.12)"><g transform="matrix(1 0 0 1 0 0)"><image x="0" y="0" xlink:href="img_18.png" width="167" height="78" /></g></g></g><g clip-path="url(#19)"><g transform="matrix(0.7218182 0 0 0.72 392.4 370.2)"><g transform="matrix(1 0 0 1 0 0)"><image x="0" y="0" xlink:href="img_22.png" width="132" height="54" /></g></g></g><path id="34" transform="matrix(1 0 0 -1 0 540)" clip-path="url(#20)" d="M0 128.64L720 128.64L720 128.64L720 228L720 228L0 228" stroke="none" fill="url(#13206)" /><path id="35" transform="matrix(1 0 0 -1 0 540)" clip-path="url(#21)" d="M0 128.64L720 128.64L720 128.64L720 0L720 0L0 0" stroke="none" fill="#3F80CD" fill-rule="evenodd" /><path id="36" transform="matrix(1 0 0 -1 0 540)" clip-path="url(#22)" d="M0 228L720 228L720 228L720 540L720 540L0 540" stroke="none" fill="#3F80CD" fill-rule="evenodd" /><path id="37" transform="matrix(1 0 0 -1 0 540)" d="M383.52 170.04C 383.52 174.61 387.23 178.32 391.8 178.32L391.8 178.32L488.4 178.32C 492.97 178.32 496.68 174.61 496.68 170.04L496.68 170.04L496.68 136.92C 496.68 132.35 492.97 128.64 488.4 128.64L488.4 128.64L391.8 128.64C 387.23 128.64 383.52 132.35 383.52 136.92z" stroke="none" fill="none" /><g clip-path="url(#23)"></g><path id="43" transform="matrix(1 0 0 -1 0 540)" d="M383 129.45C 367.81 126.83 352.3 126.81 337.11 129.38" stroke="#4F81BD" stroke-width="0.72" fill="none" /><g clip-path="url(#24)"><g transform="matrix(0.7185714 0 0 0.7230769 219.36 360.12)"><g transform="matrix(1 0 0 1 0 0)"><image x="0" y="0" xlink:href="img_23.png" width="168" height="78" /></g></g></g><g clip-path="url(#25)"><g transform="matrix(0.7214035 0 0 0.72 218.04 370.2)"><g transform="matrix(1 0 0 1 0 0)"><image x="0" y="0" xlink:href="img_24.png" width="171" height="54" /></g></g></g><path id="46" transform="matrix(1 0 0 -1 0 540)" clip-path="url(#26)" d="M0 128.64L720 128.64L720 128.64L720 228L720 228L0 228" stroke="none" fill="url(#19039)" /><path id="47" transform="matrix(1 0 0 -1 0 540)" clip-path="url(#27)" d="M0 128.64L720 128.64L720 128.64L720 0L720 0L0 0" stroke="none" fill="#3F80CD" fill-rule="evenodd" /><path id="48" transform="matrix(1 0 0 -1 0 540)" clip-path="url(#28)" d="M0 228L720 228L720 228L720 540L720 540L0 540" stroke="none" fill="#3F80CD" fill-rule="evenodd" /><path id="49" transform="matrix(1 0 0 -1 0 540)" d="M222.72 170.04C 222.72 174.61 226.43 178.32 231 178.32L231 178.32L328.44 178.32C 333.01 178.32 336.72 174.61 336.72 170.04L336.72 170.04L336.72 136.92C 336.72 132.35 333.01 128.64 328.44 128.64L328.44 128.64L231 128.64C 226.43 128.64 222.72 132.35 222.72 136.92z" stroke="none" fill="none" /><g clip-path="url(#29)"></g><path id="57" transform="matrix(1 0 0 -1 0 540)" d="M252.91 179.2C 230.34 207.71 220.08 244.05 224.41 280.16" stroke="#4F81BD" stroke-width="0.72" fill="none" /><g clip-path="url(#30)"><g transform="matrix(0.7185629 0 0 0.7230769 170.16 207.6)"><g transform="matrix(1 0 0 1 0 0)"><image x="0" y="0" xlink:href="img_18.png" width="167" height="78" /></g></g></g><g clip-path="url(#31)"><g transform="matrix(0.7189381 0 0 0.72 189.48 217.68)"><g transform="matrix(1 0 0 1 0 0)"><image x="0" y="0" xlink:href="img_25.png" width="113" height="54" /></g></g></g><path id="60" transform="matrix(1 0 0 -1 0 540)" clip-path="url(#32)" d="M0 231.48L720 231.48L720 231.48L720 330.84L720 330.84L0 330.84" stroke="none" fill="url(#24869)" /><path id="61" transform="matrix(1 0 0 -1 0 540)" clip-path="url(#33)" d="M0 231.48L720 231.48L720 231.48L720 0L720 0L0 0" stroke="none" fill="#9BC1FF" fill-rule="evenodd" /><path id="62" transform="matrix(1 0 0 -1 0 540)" clip-path="url(#34)" d="M0 330.84L720 330.84L720 330.84L720 540L720 540L0 540" stroke="none" fill="#9BC1FF" fill-rule="evenodd" /><path id="63" transform="matrix(1 0 0 -1 0 540)" d="M173.52 322.56C 173.52 327.13 177.23 330.84 181.8 330.84L181.8 330.84L278.52 330.84C 283.09 330.84 286.8 327.13 286.8 322.56L286.8 322.56L286.8 289.44C 286.8 284.87 283.09 281.16 278.52 281.16L278.52 281.16L181.8 281.16C 177.23 281.16 173.52 284.87 173.52 289.44z" stroke="none" fill="none" /><g clip-path="url(#35)"></g><path id="68" transform="matrix(1 0 0 -1 0 540)" d="M241.44 331.62C 255.48 356.18 276.81 375.76 302.47 387.66" stroke="#4F81BD" stroke-width="0.72" fill="none" /><g clip-path="url(#36)"><g transform="matrix(0.7207843 0 0 0.7183784 306.72 218.64)"><g transform="matrix(1 0 0 1 0 0)"><image x="0" y="0" xlink:href="img_26.png" width="153" height="148" /></g></g></g><g clip-path="url(#37)"><g transform="matrix(0.7178379 0 0 0.7224 321.96 254.64)"><g transform="matrix(1 0 0 1 0 0)"><image x="0" y="0" xlink:href="img_27.png" width="111" height="50" /></g></g></g><path id="71" transform="matrix(1 0 0 -1 0 540)" clip-path="url(#38)" d="M0 121.68L720 121.68L720 121.68L720 319.44L720 319.44L0 319.44" stroke="none" fill="url(#30999)" /><path id="72" transform="matrix(1 0 0 -1 0 540)" clip-path="url(#39)" d="M0 121.68L720 121.68L720 121.68L720 0L720 0L0 0" stroke="none" fill="#9BC1FF" fill-rule="evenodd" /><path id="73" transform="matrix(1 0 0 -1 0 540)" clip-path="url(#40)" d="M0 319.44L720 319.44L720 319.44L720 540L720 540L0 540" stroke="none" fill="#9BC1FF" fill-rule="evenodd" /><path id="74" transform="matrix(1 0 0 -1 0 540)" d="M310.44 270C 310.44 297.3 333.46 319.44 361.86 319.44C 390.26 319.44 413.28 297.3 413.28 270C 413.28 242.7 390.26 220.56 361.86 220.56C 333.46 220.56 310.44 242.7 310.44 270z" stroke="none" fill="none" /><path id="75" transform="matrix(1 0 0 -1 0 540)" d="M310.44 270C 310.44 297.3 333.46 319.44 361.86 319.44C 390.26 319.44 413.28 297.3 413.28 270C 413.28 242.7 390.26 220.56 361.86 220.56C 333.46 220.56 310.44 242.7 310.44 270z" stroke="#4A7EBB" stroke-width="0.72" fill="none" /><g clip-path="url(#41)"></g></g></g></svg>