<svg xmlns="http://www.w3.org/2000/svg" xmlns:xlink="http://www.w3.org/1999/xlink" id="body_15" preserveAspectRatio="xMinYMin meet" viewBox="0 0 960 720"><defs><clipPath id="1"><path id="" clip-rule="evenodd" d="M0 540L0 0L0 0L720 0L720 0L720 540L720 540L0 540z" /></clipPath><clipPath id="2"><path id="" clip-rule="evenodd" d="M0 539.9999L720 539.9999L720 539.9999L720 -0.0001220703L720 -0.0001220703L0 -0.0001220703z" /></clipPath><clipPath id="3"><path id="" clip-rule="evenodd" d="M0 539.9999L720 539.9999L720 539.9999L720 -6.103516E-05L720 -6.103516E-05L0 -6.103516E-05z" /></clipPath><clipPath id="4"><path id="" clip-rule="evenodd" d="M0 539.9998L720 539.9998L720 539.9998L720 -0.0001831055L720 -0.0001831055L0 -0.0001831055z" /></clipPath><clipPath id="5"><path id="" clip-rule="evenodd" d="M1.0729E-05 540L720 540L720 540L720 0L720 0L1.0729E-05 0z" /></clipPath><clipPath id="6"><path id="" clip-rule="evenodd" d="M-1.1321E-05 539.9999L720 539.9999L720 539.9999L720 -0.0001220703L720 -0.0001220703L-1.1321E-05 -0.0001220703z" /></clipPath></defs><g transform="matrix(1.333333 0 0 1.333333 0 0)"><g clip-path="url(#1)"><g clip-path="url(#2)"><path id="1" transform="matrix(1 0 0 -1 0 540)" d="M0 6.1035E-05L720 6.1035E-05L720 6.1035E-05L720 540.0001L720 540.0001L0 540.0001z" stroke="none" fill="#FFFFFF" fill-rule="evenodd" /></g><g clip-path="url(#3)"><g transform="matrix(0.5623125 0 0 0.56225 0.12 -6.103516E-05)"><g transform="matrix(1 0 0 1 0 0)"><image x="0" y="0" xlink:href="img_01.png" width="1280" height="960" /></g></g></g><g clip-path="url(#4)"><g transform="matrix(0.5623125 0 0 0.56225 0.12 1.320007)"><g transform="matrix(1 0 0 1 0 0)"><image x="0" y="0" xlink:href="img_03.png" width="1280" height="960" /></g></g></g><g clip-path="url(#5)"></g><g clip-path="url(#6)"><g transform="matrix(0.5747945 0 0 0.5748387 108.24 126)"><g transform="matrix(1 0 0 1 0 0)"><image x="0" y="0" xlink:href="img_52.png" width="876" height="620" /></g></g></g></g></g></svg>