<svg xmlns="http://www.w3.org/2000/svg" xmlns:xlink="http://www.w3.org/1999/xlink" id="body_20" preserveAspectRatio="xMinYMin meet" viewBox="0 0 960 720"><defs><clipPath id="1"><path id="" clip-rule="evenodd" d="M0 540L0 0L0 0L720 0L720 0L720 540L720 540L0 540z" /></clipPath><clipPath id="2"><path id="" clip-rule="evenodd" d="M0 539.9999L720 539.9999L720 539.9999L720 -0.0001220703L720 -0.0001220703L0 -0.0001220703z" /></clipPath><clipPath id="3"><path id="" clip-rule="evenodd" d="M0 539.9999L720 539.9999L720 539.9999L720 -6.103516E-05L720 -6.103516E-05L0 -6.103516E-05z" /></clipPath><clipPath id="4"><path id="" clip-rule="evenodd" d="M0 539.9998L720 539.9998L720 539.9998L720 -0.0001831055L720 -0.0001831055L0 -0.0001831055z" /></clipPath><clipPath id="5"><path id="" clip-rule="evenodd" d="M1.0729E-05 540L720 540L720 540L720 0L720 0L1.0729E-05 0z" /></clipPath><clipPath id="6"><path id="" clip-rule="evenodd" d="M1.0729E-05 0L720 0L720 0L720 539.9999L720 539.9999L1.0729E-05 539.9999L1.0729E-05 539.9999L1.0729E-05 0zM51.96 154.68L51.96 195.36L51.96 195.36L211.8 195.36L211.8 195.36L211.8 154.68L211.8 154.68L51.96 154.68z" /></clipPath><clipPath id="7"><path id="" clip-rule="evenodd" d="M1.0729E-05 0L720 0L720 0L720 539.9999L720 539.9999L1.0729E-05 539.9999L1.0729E-05 539.9999L1.0729E-05 0zM51.96 154.68L51.96 195.36L51.96 195.36L211.8 195.36L211.8 195.36L211.8 154.68L211.8 154.68L51.96 154.68z" /></clipPath><clipPath id="8"><path id="" clip-rule="evenodd" d="M51.96 344.64L211.8 344.64L211.8 344.64L211.8 385.32L211.8 385.32L51.96 385.32z" /></clipPath><linearGradient gradientUnits="userSpaceOnUse" transform="matrix(1 0 0 1 0 0)" id="1548" x1="131.88" y1="344.64" x2="131.88" y2="385.32"><stop stop-color="#3F80CD" offset="0%" /><stop stop-color="#3F80CD" offset="1%" /><stop stop-color="#4080CD" offset="2%" /><stop stop-color="#4181CD" offset="3%" /><stop stop-color="#4181CE" offset="4%" /><stop stop-color="#4181CE" offset="5%" /><stop stop-color="#4281CE" offset="6%" /><stop stop-color="#4282CE" offset="7%" /><stop stop-color="#4382CE" offset="8%" /><stop stop-color="#4482CF" offset="9%" /><stop stop-color="#4583CF" offset="10%" /><stop stop-color="#4583CF" offset="11%" /><stop stop-color="#4684CF" offset="12%" /><stop stop-color="#4784D0" offset="13%" /><stop stop-color="#4885D0" offset="14%" /><stop stop-color="#4985D0" offset="15%" /><stop stop-color="#4A86D1" offset="16%" /><stop stop-color="#4B86D1" offset="17%" /><stop stop-color="#4C87D2" offset="18%" /><stop stop-color="#4D87D2" offset="19%" /><stop stop-color="#4E88D3" offset="20%" /><stop stop-color="#5089D3" offset="21%" /><stop stop-color="#5189D3" offset="22%" /><stop stop-color="#528AD4" offset="23%" /><stop stop-color="#538BD4" offset="24%" /><stop stop-color="#548CD5" offset="25%" /><stop stop-color="#558CD5" offset="26%" /><stop stop-color="#578DD6" offset="27%" /><stop stop-color="#588ED7" offset="28%" /><stop stop-color="#598FD7" offset="29%" /><stop stop-color="#5B90D8" offset="30%" /><stop stop-color="#5C91D9" offset="31%" /><stop stop-color="#5E92DA" offset="32%" /><stop stop-color="#5F92DA" offset="33%" /><stop stop-color="#6194DB" offset="34%" /><stop stop-color="#6294DB" offset="35%" /><stop stop-color="#6395DC" offset="36%" /><stop stop-color="#6596DD" offset="37%" /><stop stop-color="#6798DE" offset="38%" /><stop stop-color="#6898DE" offset="39%" /><stop stop-color="#6A9ADF" offset="40%" /><stop stop-color="#6B9BE0" offset="41%" /><stop stop-color="#6C9CE1" offset="42%" /><stop stop-color="#6E9DE2" offset="43%" /><stop stop-color="#6F9EE3" offset="44%" /><stop stop-color="#719FE4" offset="45%" /><stop stop-color="#72A0E4" offset="46%" /><stop stop-color="#74A1E5" offset="47%" /><stop stop-color="#75A2E6" offset="48%" /><stop stop-color="#77A3E7" offset="49%" /><stop stop-color="#78A4E8" offset="50%" /><stop stop-color="#79A5E8" offset="51%" /><stop stop-color="#7BA7E9" offset="52%" /><stop stop-color="#7CA8EA" offset="53%" /><stop stop-color="#7DA9EB" offset="54%" /><stop stop-color="#7FA9EC" offset="55%" /><stop stop-color="#80ABED" offset="56%" /><stop stop-color="#81ABED" offset="57%" /><stop stop-color="#82ADEE" offset="58%" /><stop stop-color="#83ADEF" offset="59%" /><stop stop-color="#85AEEF" offset="60%" /><stop stop-color="#86AFF0" offset="61%" /><stop stop-color="#87B0F1" offset="62%" /><stop stop-color="#88B1F2" offset="63%" /><stop stop-color="#89B2F2" offset="64%" /><stop stop-color="#8AB3F3" offset="65%" /><stop stop-color="#8BB3F4" offset="66%" /><stop stop-color="#8CB4F4" offset="67%" /><stop stop-color="#8DB5F5" offset="68%" /><stop stop-color="#8EB6F5" offset="69%" /><stop stop-color="#8EB6F6" offset="70%" /><stop stop-color="#8FB7F7" offset="71%" /><stop stop-color="#90B8F7" offset="72%" /><stop stop-color="#91B8F8" offset="73%" /><stop stop-color="#91B9F8" offset="74%" /><stop stop-color="#92B9F9" offset="75%" /><stop stop-color="#93BAF9" offset="76%" /><stop stop-color="#93BAF9" offset="77%" /><stop stop-color="#94BBFA" offset="78%" /><stop stop-color="#94BBFA" offset="79%" /><stop stop-color="#95BCFB" offset="80%" /><stop stop-color="#95BCFB" offset="81%" /><stop stop-color="#96BDFB" offset="82%" /><stop stop-color="#97BDFC" offset="83%" /><stop stop-color="#97BDFC" offset="84%" /><stop stop-color="#97BEFC" offset="85%" /><stop stop-color="#98BEFC" offset="86%" /><stop stop-color="#98BEFD" offset="87%" /><stop stop-color="#98BFFD" offset="88%" /><stop stop-color="#99BFFD" offset="89%" /><stop stop-color="#99BFFE" offset="90%" /><stop stop-color="#99C0FE" offset="91%" /><stop stop-color="#9AC0FE" offset="92%" /><stop stop-color="#9AC0FE" offset="93%" /><stop stop-color="#9AC0FE" offset="94%" /><stop stop-color="#9AC0FE" offset="95%" /><stop stop-color="#9AC0FF" offset="96%" /><stop stop-color="#9BC1FF" offset="97%" /><stop stop-color="#9BC1FF" offset="98%" /><stop stop-color="#9BC1FF" offset="99%" /><stop stop-color="#9BC1FF" offset="100%" /></linearGradient><clipPath id="9"><path id="" clip-rule="evenodd" d="M51.96 344.64L211.8 344.64L211.8 344.64L211.8 385.32L211.8 385.32L51.96 385.32z" /></clipPath><clipPath id="10"><path id="" clip-rule="evenodd" d="M51.96 344.64L211.8 344.64L211.8 344.64L211.8 385.32L211.8 385.32L51.96 385.32z" /></clipPath><clipPath id="11"><path id="" clip-rule="evenodd" d="M1.0729E-05 540L720 540L720 540L720 0L720 0L1.0729E-05 0z" /></clipPath><clipPath id="12"><path id="" clip-rule="evenodd" d="M1.0729E-05 0L720 0L720 0L720 539.9999L720 539.9999L1.0729E-05 539.9999L1.0729E-05 539.9999L1.0729E-05 0zM51.96 251.4L51.96 292.2L51.96 292.2L211.8 292.2L211.8 292.2L211.8 251.4L211.8 251.4L51.96 251.4z" /></clipPath><clipPath id="13"><path id="" clip-rule="evenodd" d="M1.0729E-05 0L720 0L720 0L720 539.9999L720 539.9999L1.0729E-05 539.9999L1.0729E-05 539.9999L1.0729E-05 0zM51.96 251.4L51.96 292.2L51.96 292.2L211.8 292.2L211.8 292.2L211.8 251.4L211.8 251.4L51.96 251.4z" /></clipPath><clipPath id="14"><path id="" clip-rule="evenodd" d="M51.96 247.8L211.8 247.8L211.8 247.8L211.8 288.6L211.8 288.6L51.96 288.6z" /></clipPath><linearGradient gradientUnits="userSpaceOnUse" transform="matrix(1 0 0 1 0 0)" id="7047" x1="131.88" y1="207" x2="131.88" y2="288.6"><stop stop-color="#9BC1FF" offset="0%" /><stop stop-color="#9BC1FF" offset="1%" /><stop stop-color="#9AC0FF" offset="2%" /><stop stop-color="#9AC0FE" offset="3%" /><stop stop-color="#9AC0FE" offset="4%" /><stop stop-color="#99BFFE" offset="5%" /><stop stop-color="#98BFFD" offset="6%" /><stop stop-color="#98BEFC" offset="7%" /><stop stop-color="#97BDFC" offset="8%" /><stop stop-color="#96BDFB" offset="9%" /><stop stop-color="#95BCFB" offset="10%" /><stop stop-color="#94BBFA" offset="11%" /><stop stop-color="#93BAF9" offset="12%" /><stop stop-color="#91B9F8" offset="13%" /><stop stop-color="#90B7F7" offset="14%" /><stop stop-color="#8EB6F6" offset="15%" /><stop stop-color="#8DB5F5" offset="16%" /><stop stop-color="#8BB3F4" offset="17%" /><stop stop-color="#89B2F2" offset="18%" /><stop stop-color="#87B0F1" offset="19%" /><stop stop-color="#85AEEF" offset="20%" /><stop stop-color="#82ADEE" offset="21%" /><stop stop-color="#80ABED" offset="22%" /><stop stop-color="#7DA8EB" offset="23%" /><stop stop-color="#7AA6E9" offset="24%" /><stop stop-color="#78A4E8" offset="25%" /><stop stop-color="#75A2E6" offset="26%" /><stop stop-color="#72A0E4" offset="27%" /><stop stop-color="#6F9EE3" offset="28%" /><stop stop-color="#6C9CE1" offset="29%" /><stop stop-color="#6A9ADF" offset="30%" /><stop stop-color="#6798DE" offset="31%" /><stop stop-color="#6395DC" offset="32%" /><stop stop-color="#6093DB" offset="33%" /><stop stop-color="#5D91D9" offset="34%" /><stop stop-color="#5B90D8" offset="35%" /><stop stop-color="#588ED7" offset="36%" /><stop stop-color="#558CD5" offset="37%" /><stop stop-color="#538BD4" offset="38%" /><stop stop-color="#5189D3" offset="39%" /><stop stop-color="#4E88D3" offset="40%" /><stop stop-color="#4B86D2" offset="41%" /><stop stop-color="#4985D1" offset="42%" /><stop stop-color="#4884D0" offset="43%" /><stop stop-color="#4683CF" offset="44%" /><stop stop-color="#4583CF" offset="45%" /><stop stop-color="#4382CE" offset="46%" /><stop stop-color="#4281CE" offset="47%" /><stop stop-color="#4181CE" offset="48%" /><stop stop-color="#4080CD" offset="49%" /><stop stop-color="#3F80CD" offset="50%" /><stop stop-color="#4080CD" offset="51%" /><stop stop-color="#4181CE" offset="52%" /><stop stop-color="#4281CE" offset="53%" /><stop stop-color="#4382CE" offset="54%" /><stop stop-color="#4583CF" offset="55%" /><stop stop-color="#4683CF" offset="56%" /><stop stop-color="#4884D0" offset="57%" /><stop stop-color="#4985D1" offset="58%" /><stop stop-color="#4B86D2" offset="59%" /><stop stop-color="#4E88D3" offset="60%" /><stop stop-color="#5189D3" offset="61%" /><stop stop-color="#538BD4" offset="62%" /><stop stop-color="#558CD5" offset="63%" /><stop stop-color="#588ED7" offset="64%" /><stop stop-color="#5B90D8" offset="65%" /><stop stop-color="#5D91D9" offset="66%" /><stop stop-color="#6093DB" offset="67%" /><stop stop-color="#6395DC" offset="68%" /><stop stop-color="#6798DE" offset="69%" /><stop stop-color="#6A9ADF" offset="70%" /><stop stop-color="#6C9CE1" offset="71%" /><stop stop-color="#6F9EE3" offset="72%" /><stop stop-color="#72A0E4" offset="73%" /><stop stop-color="#75A2E6" offset="74%" /><stop stop-color="#78A4E8" offset="75%" /><stop stop-color="#7AA6E9" offset="76%" /><stop stop-color="#7DA8EB" offset="77%" /><stop stop-color="#80ABED" offset="78%" /><stop stop-color="#82ADEE" offset="79%" /><stop stop-color="#85AEEF" offset="80%" /><stop stop-color="#87B0F1" offset="81%" /><stop stop-color="#89B2F2" offset="82%" /><stop stop-color="#8BB3F4" offset="83%" /><stop stop-color="#8DB5F5" offset="84%" /><stop stop-color="#8EB6F6" offset="85%" /><stop stop-color="#90B7F7" offset="86%" /><stop stop-color="#91B9F8" offset="87%" /><stop stop-color="#93BAF9" offset="88%" /><stop stop-color="#94BBFA" offset="89%" /><stop stop-color="#95BCFB" offset="90%" /><stop stop-color="#96BDFB" offset="91%" /><stop stop-color="#97BDFC" offset="92%" /><stop stop-color="#98BEFC" offset="93%" /><stop stop-color="#98BFFD" offset="94%" /><stop stop-color="#99BFFE" offset="95%" /><stop stop-color="#9AC0FE" offset="96%" /><stop stop-color="#9AC0FE" offset="97%" /><stop stop-color="#9AC0FF" offset="98%" /><stop stop-color="#9BC1FF" offset="99%" /><stop stop-color="#9BC1FF" offset="100%" /></linearGradient><clipPath id="15"><path id="" clip-rule="evenodd" d="M51.96 247.8L211.8 247.8L211.8 247.8L211.8 288.6L211.8 288.6L51.96 288.6z" /></clipPath><clipPath id="16"><path id="" clip-rule="evenodd" d="M51.96 247.8L211.8 247.8L211.8 247.8L211.8 288.6L211.8 288.6L51.96 288.6z" /></clipPath><clipPath id="17"><path id="" clip-rule="evenodd" d="M1.0729E-05 540L720 540L720 540L720 0L720 0L1.0729E-05 0z" /></clipPath><clipPath id="18"><path id="" clip-rule="evenodd" d="M1.0729E-05 540L720 540L720 540L720 0L720 0L1.0729E-05 0z" /></clipPath><clipPath id="19"><path id="" clip-rule="evenodd" d="M1.0729E-05 540L720 540L720 540L720 0L720 0L1.0729E-05 0z" /></clipPath><clipPath id="20"><path id="" clip-rule="evenodd" d="M1.0729E-05 540L720 540L720 540L720 0L720 0L1.0729E-05 0z" /></clipPath><clipPath id="21"><path id="" clip-rule="evenodd" d="M1.0729E-05 540L720 540L720 540L720 0L720 0L1.0729E-05 0z" /></clipPath><clipPath id="22"><path id="" clip-rule="evenodd" d="M1.0729E-05 540L720 540L720 540L720 0L720 0L1.0729E-05 0z" /></clipPath><clipPath id="23"><path id="" clip-rule="evenodd" d="M1.0729E-05 540L720 540L720 540L720 0L720 0L1.0729E-05 0z" /></clipPath><clipPath id="24"><path id="" clip-rule="evenodd" d="M1.0729E-05 540L720 540L720 540L720 0L720 0L1.0729E-05 0z" /></clipPath><clipPath id="25"><path id="" clip-rule="evenodd" d="M1.0729E-05 540L720 540L720 540L720 0L720 0L1.0729E-05 0z" /></clipPath><clipPath id="26"><path id="" clip-rule="evenodd" d="M1.0729E-05 540L720 540L720 540L720 0L720 0L1.0729E-05 0z" /></clipPath><clipPath id="27"><path id="" clip-rule="evenodd" d="M1.0729E-05 0L720 0L720 0L720 539.9999L720 539.9999L1.0729E-05 539.9999L1.0729E-05 539.9999L1.0729E-05 0zM49.56 349.8L49.56 390.72L49.56 390.72L209.4 390.72L209.4 390.72L209.4 349.8L209.4 349.8L49.56 349.8z" /></clipPath><clipPath id="28"><path id="" clip-rule="evenodd" d="M1.0729E-05 0L720 0L720 0L720 539.9999L720 539.9999L1.0729E-05 539.9999L1.0729E-05 539.9999L1.0729E-05 0zM49.56 349.8L49.56 390.72L49.56 390.72L209.4 390.72L209.4 390.72L209.4 349.8L209.4 349.8L49.56 349.8z" /></clipPath><clipPath id="29"><path id="" clip-rule="evenodd" d="M49.56 149.28L209.4 149.28L209.4 149.28L209.4 190.2L209.4 190.2L49.56 190.2z" /></clipPath><linearGradient gradientUnits="userSpaceOnUse" transform="matrix(1 0 0 1 0 0)" id="13820" x1="129.48" y1="108.36" x2="129.48" y2="190.2"><stop stop-color="#9BC1FF" offset="0%" /><stop stop-color="#9BC1FF" offset="1%" /><stop stop-color="#9AC0FF" offset="2%" /><stop stop-color="#9AC0FE" offset="3%" /><stop stop-color="#9AC0FE" offset="4%" /><stop stop-color="#99BFFE" offset="5%" /><stop stop-color="#98BFFD" offset="6%" /><stop stop-color="#98BEFC" offset="7%" /><stop stop-color="#97BDFC" offset="8%" /><stop stop-color="#96BDFB" offset="9%" /><stop stop-color="#95BCFB" offset="10%" /><stop stop-color="#94BBFA" offset="11%" /><stop stop-color="#93BAF9" offset="12%" /><stop stop-color="#91B9F8" offset="13%" /><stop stop-color="#90B7F7" offset="14%" /><stop stop-color="#8EB6F6" offset="15%" /><stop stop-color="#8DB5F5" offset="16%" /><stop stop-color="#8BB3F4" offset="17%" /><stop stop-color="#89B2F2" offset="18%" /><stop stop-color="#87B0F1" offset="19%" /><stop stop-color="#85AEEF" offset="20%" /><stop stop-color="#82ADEE" offset="21%" /><stop stop-color="#80ABED" offset="22%" /><stop stop-color="#7DA8EB" offset="23%" /><stop stop-color="#7AA6E9" offset="24%" /><stop stop-color="#78A4E8" offset="25%" /><stop stop-color="#75A2E6" offset="26%" /><stop stop-color="#72A0E4" offset="27%" /><stop stop-color="#6F9EE3" offset="28%" /><stop stop-color="#6C9CE1" offset="29%" /><stop stop-color="#6A9ADF" offset="30%" /><stop stop-color="#6798DE" offset="31%" /><stop stop-color="#6395DC" offset="32%" /><stop stop-color="#6093DB" offset="33%" /><stop stop-color="#5D91D9" offset="34%" /><stop stop-color="#5B90D8" offset="35%" /><stop stop-color="#588ED7" offset="36%" /><stop stop-color="#558CD5" offset="37%" /><stop stop-color="#538BD4" offset="38%" /><stop stop-color="#5189D3" offset="39%" /><stop stop-color="#4E88D3" offset="40%" /><stop stop-color="#4B86D2" offset="41%" /><stop stop-color="#4985D1" offset="42%" /><stop stop-color="#4884D0" offset="43%" /><stop stop-color="#4683CF" offset="44%" /><stop stop-color="#4583CF" offset="45%" /><stop stop-color="#4382CE" offset="46%" /><stop stop-color="#4281CE" offset="47%" /><stop stop-color="#4181CE" offset="48%" /><stop stop-color="#4080CD" offset="49%" /><stop stop-color="#3F80CD" offset="50%" /><stop stop-color="#4080CD" offset="51%" /><stop stop-color="#4181CE" offset="52%" /><stop stop-color="#4281CE" offset="53%" /><stop stop-color="#4382CE" offset="54%" /><stop stop-color="#4583CF" offset="55%" /><stop stop-color="#4683CF" offset="56%" /><stop stop-color="#4884D0" offset="57%" /><stop stop-color="#4985D1" offset="58%" /><stop stop-color="#4B86D2" offset="59%" /><stop stop-color="#4E88D3" offset="60%" /><stop stop-color="#5189D3" offset="61%" /><stop stop-color="#538BD4" offset="62%" /><stop stop-color="#558CD5" offset="63%" /><stop stop-color="#588ED7" offset="64%" /><stop stop-color="#5B90D8" offset="65%" /><stop stop-color="#5D91D9" offset="66%" /><stop stop-color="#6093DB" offset="67%" /><stop stop-color="#6395DC" offset="68%" /><stop stop-color="#6798DE" offset="69%" /><stop stop-color="#6A9ADF" offset="70%" /><stop stop-color="#6C9CE1" offset="71%" /><stop stop-color="#6F9EE3" offset="72%" /><stop stop-color="#72A0E4" offset="73%" /><stop stop-color="#75A2E6" offset="74%" /><stop stop-color="#78A4E8" offset="75%" /><stop stop-color="#7AA6E9" offset="76%" /><stop stop-color="#7DA8EB" offset="77%" /><stop stop-color="#80ABED" offset="78%" /><stop stop-color="#82ADEE" offset="79%" /><stop stop-color="#85AEEF" offset="80%" /><stop stop-color="#87B0F1" offset="81%" /><stop stop-color="#89B2F2" offset="82%" /><stop stop-color="#8BB3F4" offset="83%" /><stop stop-color="#8DB5F5" offset="84%" /><stop stop-color="#8EB6F6" offset="85%" /><stop stop-color="#90B7F7" offset="86%" /><stop stop-color="#91B9F8" offset="87%" /><stop stop-color="#93BAF9" offset="88%" /><stop stop-color="#94BBFA" offset="89%" /><stop stop-color="#95BCFB" offset="90%" /><stop stop-color="#96BDFB" offset="91%" /><stop stop-color="#97BDFC" offset="92%" /><stop stop-color="#98BEFC" offset="93%" /><stop stop-color="#98BFFD" offset="94%" /><stop stop-color="#99BFFE" offset="95%" /><stop stop-color="#9AC0FE" offset="96%" /><stop stop-color="#9AC0FE" offset="97%" /><stop stop-color="#9AC0FF" offset="98%" /><stop stop-color="#9BC1FF" offset="99%" /><stop stop-color="#9BC1FF" offset="100%" /></linearGradient><clipPath id="30"><path id="" clip-rule="evenodd" d="M49.56 149.28L209.4 149.28L209.4 149.28L209.4 190.2L209.4 190.2L49.56 190.2z" /></clipPath><clipPath id="31"><path id="" clip-rule="evenodd" d="M49.56 149.28L209.4 149.28L209.4 149.28L209.4 190.2L209.4 190.2L49.56 190.2z" /></clipPath><clipPath id="32"><path id="" clip-rule="evenodd" d="M1.0729E-05 540L720 540L720 540L720 0L720 0L1.0729E-05 0z" /></clipPath><clipPath id="33"><path id="" clip-rule="evenodd" d="M1.0729E-05 0L720 0L720 0L720 539.9999L720 539.9999L1.0729E-05 539.9999L1.0729E-05 539.9999L1.0729E-05 0zM120.99 195.36L120.99 234.9L120.99 234.9L112.8 234.9L112.8 234.9L129.18 251.28L129.18 251.28L145.56 234.9L145.56 234.9L137.37 234.9L137.37 234.9L137.37 195.36L137.37 195.36L120.99 195.36z" /></clipPath><clipPath id="34"><path id="" clip-rule="evenodd" d="M112.8 305.1L120.99 305.1L120.99 305.1L120.99 344.64L120.99 344.64L137.37 344.64L137.37 344.64L137.37 305.1L137.37 305.1L145.56 305.1L145.56 305.1L129.18 288.72z" /></clipPath><linearGradient gradientUnits="userSpaceOnUse" transform="matrix(1 0 0 1 0 0)" id="19205" x1="129.18" y1="232.8" x2="129.18" y2="344.64"><stop stop-color="#9BC1FF" offset="0%" /><stop stop-color="#9BC1FF" offset="1%" /><stop stop-color="#9AC0FF" offset="2%" /><stop stop-color="#9AC0FE" offset="3%" /><stop stop-color="#9AC0FE" offset="4%" /><stop stop-color="#99BFFE" offset="5%" /><stop stop-color="#98BFFD" offset="6%" /><stop stop-color="#98BEFC" offset="7%" /><stop stop-color="#97BDFC" offset="8%" /><stop stop-color="#96BDFB" offset="9%" /><stop stop-color="#95BCFB" offset="10%" /><stop stop-color="#94BBFA" offset="11%" /><stop stop-color="#93BAF9" offset="12%" /><stop stop-color="#91B9F8" offset="13%" /><stop stop-color="#90B7F7" offset="14%" /><stop stop-color="#8EB6F6" offset="15%" /><stop stop-color="#8DB5F5" offset="16%" /><stop stop-color="#8BB3F4" offset="17%" /><stop stop-color="#89B2F2" offset="18%" /><stop stop-color="#87B0F1" offset="19%" /><stop stop-color="#85AEEF" offset="20%" /><stop stop-color="#82ADEE" offset="21%" /><stop stop-color="#80ABED" offset="22%" /><stop stop-color="#7DA8EB" offset="23%" /><stop stop-color="#7AA6E9" offset="24%" /><stop stop-color="#78A4E8" offset="25%" /><stop stop-color="#75A2E6" offset="26%" /><stop stop-color="#72A0E4" offset="27%" /><stop stop-color="#6F9EE3" offset="28%" /><stop stop-color="#6C9CE1" offset="29%" /><stop stop-color="#6A9ADF" offset="30%" /><stop stop-color="#6798DE" offset="31%" /><stop stop-color="#6395DC" offset="32%" /><stop stop-color="#6093DB" offset="33%" /><stop stop-color="#5D91D9" offset="34%" /><stop stop-color="#5B90D8" offset="35%" /><stop stop-color="#588ED7" offset="36%" /><stop stop-color="#558CD5" offset="37%" /><stop stop-color="#538BD4" offset="38%" /><stop stop-color="#5189D3" offset="39%" /><stop stop-color="#4E88D3" offset="40%" /><stop stop-color="#4B86D2" offset="41%" /><stop stop-color="#4985D1" offset="42%" /><stop stop-color="#4884D0" offset="43%" /><stop stop-color="#4683CF" offset="44%" /><stop stop-color="#4583CF" offset="45%" /><stop stop-color="#4382CE" offset="46%" /><stop stop-color="#4281CE" offset="47%" /><stop stop-color="#4181CE" offset="48%" /><stop stop-color="#4080CD" offset="49%" /><stop stop-color="#3F80CD" offset="50%" /><stop stop-color="#4080CD" offset="51%" /><stop stop-color="#4181CE" offset="52%" /><stop stop-color="#4281CE" offset="53%" /><stop stop-color="#4382CE" offset="54%" /><stop stop-color="#4583CF" offset="55%" /><stop stop-color="#4683CF" offset="56%" /><stop stop-color="#4884D0" offset="57%" /><stop stop-color="#4985D1" offset="58%" /><stop stop-color="#4B86D2" offset="59%" /><stop stop-color="#4E88D3" offset="60%" /><stop stop-color="#5189D3" offset="61%" /><stop stop-color="#538BD4" offset="62%" /><stop stop-color="#558CD5" offset="63%" /><stop stop-color="#588ED7" offset="64%" /><stop stop-color="#5B90D8" offset="65%" /><stop stop-color="#5D91D9" offset="66%" /><stop stop-color="#6093DB" offset="67%" /><stop stop-color="#6395DC" offset="68%" /><stop stop-color="#6798DE" offset="69%" /><stop stop-color="#6A9ADF" offset="70%" /><stop stop-color="#6C9CE1" offset="71%" /><stop stop-color="#6F9EE3" offset="72%" /><stop stop-color="#72A0E4" offset="73%" /><stop stop-color="#75A2E6" offset="74%" /><stop stop-color="#78A4E8" offset="75%" /><stop stop-color="#7AA6E9" offset="76%" /><stop stop-color="#7DA8EB" offset="77%" /><stop stop-color="#80ABED" offset="78%" /><stop stop-color="#82ADEE" offset="79%" /><stop stop-color="#85AEEF" offset="80%" /><stop stop-color="#87B0F1" offset="81%" /><stop stop-color="#89B2F2" offset="82%" /><stop stop-color="#8BB3F4" offset="83%" /><stop stop-color="#8DB5F5" offset="84%" /><stop stop-color="#8EB6F6" offset="85%" /><stop stop-color="#90B7F7" offset="86%" /><stop stop-color="#91B9F8" offset="87%" /><stop stop-color="#93BAF9" offset="88%" /><stop stop-color="#94BBFA" offset="89%" /><stop stop-color="#95BCFB" offset="90%" /><stop stop-color="#96BDFB" offset="91%" /><stop stop-color="#97BDFC" offset="92%" /><stop stop-color="#98BEFC" offset="93%" /><stop stop-color="#98BFFD" offset="94%" /><stop stop-color="#99BFFE" offset="95%" /><stop stop-color="#9AC0FE" offset="96%" /><stop stop-color="#9AC0FE" offset="97%" /><stop stop-color="#9AC0FF" offset="98%" /><stop stop-color="#9BC1FF" offset="99%" /><stop stop-color="#9BC1FF" offset="100%" /></linearGradient><clipPath id="35"><path id="" clip-rule="evenodd" d="M112.8 305.1L120.99 305.1L120.99 305.1L120.99 344.64L120.99 344.64L137.37 344.64L137.37 344.64L137.37 305.1L137.37 305.1L145.56 305.1L145.56 305.1L129.18 288.72z" /></clipPath><clipPath id="36"><path id="" clip-rule="evenodd" d="M112.8 305.1L120.99 305.1L120.99 305.1L120.99 344.64L120.99 344.64L137.37 344.64L137.37 344.64L137.37 305.1L137.37 305.1L145.56 305.1L145.56 305.1L129.18 288.72z" /></clipPath><clipPath id="37"><path id="" clip-rule="evenodd" d="M1.0729E-05 0L720 0L720 0L720 539.9999L720 539.9999L1.0729E-05 539.9999L1.0729E-05 539.9999L1.0729E-05 0zM128.76 292.32L111.96 309.12L111.96 309.12L120.36 309.12L120.36 309.12L120.36 349.8L120.36 349.8L137.16 349.8L137.16 349.8L137.16 309.12L137.16 309.12L145.56 309.12L145.56 309.12L128.76 292.32z" /></clipPath><clipPath id="38"><path id="" clip-rule="evenodd" d="M145.56 230.88L137.16 230.88L137.16 230.88L137.16 190.2L137.16 190.2L120.36 190.2L120.36 190.2L120.36 230.88L120.36 230.88L111.96 230.88L111.96 230.88L128.76 247.68z" /></clipPath><linearGradient gradientUnits="userSpaceOnUse" transform="matrix(1 0 0 1 0 0)" id="24628" x1="128.76" y1="247.68" x2="128.76" y2="132.72"><stop stop-color="#3F80CD" offset="0%" /><stop stop-color="#4080CD" offset="1%" /><stop stop-color="#4181CE" offset="2%" /><stop stop-color="#4281CE" offset="3%" /><stop stop-color="#4382CE" offset="4%" /><stop stop-color="#4583CF" offset="5%" /><stop stop-color="#4684CF" offset="6%" /><stop stop-color="#4885D0" offset="7%" /><stop stop-color="#4A86D1" offset="8%" /><stop stop-color="#4C87D2" offset="9%" /><stop stop-color="#4E88D3" offset="10%" /><stop stop-color="#5189D3" offset="11%" /><stop stop-color="#538BD4" offset="12%" /><stop stop-color="#558CD5" offset="13%" /><stop stop-color="#598ED7" offset="14%" /><stop stop-color="#5B90D8" offset="15%" /><stop stop-color="#5E92DA" offset="16%" /><stop stop-color="#6194DB" offset="17%" /><stop stop-color="#6395DC" offset="18%" /><stop stop-color="#6798DE" offset="19%" /><stop stop-color="#6A9ADF" offset="20%" /><stop stop-color="#6C9CE1" offset="21%" /><stop stop-color="#6F9EE3" offset="22%" /><stop stop-color="#73A0E5" offset="23%" /><stop stop-color="#75A3E6" offset="24%" /><stop stop-color="#78A5E8" offset="25%" /><stop stop-color="#7BA7E9" offset="26%" /><stop stop-color="#7DA9EB" offset="27%" /><stop stop-color="#80ABED" offset="28%" /><stop stop-color="#82ADEE" offset="29%" /><stop stop-color="#85AEEF" offset="30%" /><stop stop-color="#87B0F1" offset="31%" /><stop stop-color="#89B2F3" offset="32%" /><stop stop-color="#8BB4F4" offset="33%" /><stop stop-color="#8DB5F5" offset="34%" /><stop stop-color="#8EB6F6" offset="35%" /><stop stop-color="#90B8F7" offset="36%" /><stop stop-color="#91B9F8" offset="37%" /><stop stop-color="#93BAF9" offset="38%" /><stop stop-color="#94BBFA" offset="39%" /><stop stop-color="#95BCFB" offset="40%" /><stop stop-color="#96BDFB" offset="41%" /><stop stop-color="#97BEFC" offset="42%" /><stop stop-color="#98BEFD" offset="43%" /><stop stop-color="#98BFFD" offset="44%" /><stop stop-color="#99BFFE" offset="45%" /><stop stop-color="#9AC0FE" offset="46%" /><stop stop-color="#9AC0FE" offset="47%" /><stop stop-color="#9AC0FF" offset="48%" /><stop stop-color="#9BC1FF" offset="49%" /><stop stop-color="#9BC1FF" offset="50%" /><stop stop-color="#9BC1FF" offset="51%" /><stop stop-color="#9AC0FF" offset="52%" /><stop stop-color="#9AC0FE" offset="53%" /><stop stop-color="#9AC0FE" offset="54%" /><stop stop-color="#99BFFE" offset="55%" /><stop stop-color="#98BFFD" offset="56%" /><stop stop-color="#98BEFD" offset="57%" /><stop stop-color="#97BEFC" offset="58%" /><stop stop-color="#96BDFB" offset="59%" /><stop stop-color="#95BCFB" offset="60%" /><stop stop-color="#94BBFA" offset="61%" /><stop stop-color="#93BAF9" offset="62%" /><stop stop-color="#91B9F8" offset="63%" /><stop stop-color="#90B8F7" offset="64%" /><stop stop-color="#8EB6F6" offset="65%" /><stop stop-color="#8DB5F5" offset="66%" /><stop stop-color="#8BB4F4" offset="67%" /><stop stop-color="#89B2F3" offset="68%" /><stop stop-color="#87B0F1" offset="69%" /><stop stop-color="#85AEEF" offset="70%" /><stop stop-color="#82ADEE" offset="71%" /><stop stop-color="#80ABED" offset="72%" /><stop stop-color="#7DA9EB" offset="73%" /><stop stop-color="#7BA7E9" offset="74%" /><stop stop-color="#78A5E8" offset="75%" /><stop stop-color="#75A3E6" offset="76%" /><stop stop-color="#73A0E5" offset="77%" /><stop stop-color="#6F9EE3" offset="78%" /><stop stop-color="#6C9CE1" offset="79%" /><stop stop-color="#6A9ADF" offset="80%" /><stop stop-color="#6798DE" offset="81%" /><stop stop-color="#6395DC" offset="82%" /><stop stop-color="#6194DB" offset="83%" /><stop stop-color="#5E92DA" offset="84%" /><stop stop-color="#5B90D8" offset="85%" /><stop stop-color="#598ED7" offset="86%" /><stop stop-color="#558CD5" offset="87%" /><stop stop-color="#538BD4" offset="88%" /><stop stop-color="#5189D3" offset="89%" /><stop stop-color="#4E88D3" offset="90%" /><stop stop-color="#4C87D2" offset="91%" /><stop stop-color="#4A86D1" offset="92%" /><stop stop-color="#4885D0" offset="93%" /><stop stop-color="#4684CF" offset="94%" /><stop stop-color="#4583CF" offset="95%" /><stop stop-color="#4382CE" offset="96%" /><stop stop-color="#4281CE" offset="97%" /><stop stop-color="#4181CE" offset="98%" /><stop stop-color="#4080CD" offset="99%" /><stop stop-color="#3F80CD" offset="100%" /></linearGradient><clipPath id="39"><path id="" clip-rule="evenodd" d="M145.56 230.88L137.16 230.88L137.16 230.88L137.16 190.2L137.16 190.2L120.36 190.2L120.36 190.2L120.36 230.88L120.36 230.88L111.96 230.88L111.96 230.88L128.76 247.68z" /></clipPath><clipPath id="40"><path id="" clip-rule="evenodd" d="M145.56 230.88L137.16 230.88L137.16 230.88L137.16 190.2L137.16 190.2L120.36 190.2L120.36 190.2L120.36 230.88L120.36 230.88L111.96 230.88L111.96 230.88L128.76 247.68z" /></clipPath><clipPath id="41"><path id="" clip-rule="evenodd" d="M-2.5752E-05 539.9998L720 539.9998L720 539.9998L720 -0.0001831055L720 -0.0001831055L-2.5752E-05 -0.0001831055z" /></clipPath><clipPath id="42"><path id="" clip-rule="evenodd" d="M1.0729E-05 540L720 540L720 540L720 0L720 0L1.0729E-05 0z" /></clipPath><clipPath id="43"><path id="" clip-rule="evenodd" d="M1.0729E-05 540L720 540L720 540L720 0L720 0L1.0729E-05 0z" /></clipPath><clipPath id="44"><path id="" clip-rule="evenodd" d="M1.0729E-05 540L720 540L720 540L720 0L720 0L1.0729E-05 0z" /></clipPath><clipPath id="45"><path id="" clip-rule="evenodd" d="M1.0729E-05 540L720 540L720 540L720 0L720 0L1.0729E-05 0z" /></clipPath><clipPath id="46"><path id="" clip-rule="evenodd" d="M1.0729E-05 540L720 540L720 540L720 0L720 0L1.0729E-05 0z" /></clipPath></defs><g transform="matrix(1.333333 0 0 1.333333 0 0)"><g clip-path="url(#1)"><g clip-path="url(#2)"><path id="1" transform="matrix(1 0 0 -1 0 540)" d="M0 6.1035E-05L720 6.1035E-05L720 6.1035E-05L720 540.0001L720 540.0001L0 540.0001z" stroke="none" fill="#FFFFFF" fill-rule="evenodd" /></g><g clip-path="url(#3)"><g transform="matrix(0.5623125 0 0 0.56225 0.12 -6.103516E-05)"><g transform="matrix(1 0 0 1 0 0)"><image x="0" y="0" xlink:href="img_01.png" width="1280" height="960" /></g></g></g><g clip-path="url(#4)"><g transform="matrix(0.5623125 0 0 0.56225 0.12 1.320007)"><g transform="matrix(1 0 0 1 0 0)"><image x="0" y="0" xlink:href="img_03.png" width="1280" height="960" /></g></g></g><g clip-path="url(#5)"></g><g clip-path="url(#6)"><g transform="matrix(0.7210345 0 0 0.7182089 48.24 152.76)"><g transform="matrix(1 0 0 1 0 0)"><image x="0" y="0" xlink:href="img_60.png" width="232" height="67" /></g></g></g><g clip-path="url(#7)"><g transform="matrix(0.7184746 0 0 0.72 47.04 157.92)"><g transform="matrix(1 0 0 1 0 0)"><image x="0" y="0" xlink:href="img_61.png" width="236" height="56" /></g></g></g><path id="12" transform="matrix(1 0 0 -1 0 540)" clip-path="url(#8)" d="M0 344.64L720 344.64L720 344.64L720 385.32L720 385.32L0 385.32" stroke="none" fill="url(#1548)" /><path id="13" transform="matrix(1 0 0 -1 0 540)" clip-path="url(#9)" d="M0 344.64L720 344.64L720 344.64L720 0L720 0L0 0" stroke="none" fill="#3F80CD" fill-rule="evenodd" /><path id="14" transform="matrix(1 0 0 -1 0 540)" clip-path="url(#10)" d="M0 385.32L720 385.32L720 385.32L720 540L720 540L0 540" stroke="none" fill="#9BC1FF" fill-rule="evenodd" /><path id="15" transform="matrix(1 0 0 -1 0 540)" d="M51.96 344.64L211.8 344.64L211.8 344.64L211.8 385.32L211.8 385.32L51.96 385.32z" stroke="none" fill="none" /><path id="16" transform="matrix(1 0 0 -1 0 540)" d="M51.96 344.64L211.8 344.64L211.8 344.64L211.8 385.32L211.8 385.32L51.96 385.32z" stroke="#4A7EBB" stroke-width="0.72" fill="none" /><g clip-path="url(#11)"></g><g clip-path="url(#12)"><g transform="matrix(0.7210345 0 0 0.72 48.24 249.48)"><g transform="matrix(1 0 0 1 0 0)"><image x="0" y="0" xlink:href="img_62.png" width="232" height="67" /></g></g></g><g clip-path="url(#13)"><g transform="matrix(0.7184616 0 0 0.7152632 47.76 248.04)"><g transform="matrix(1 0 0 1 0 0)"><image x="0" y="0" xlink:href="img_63.png" width="234" height="76" /></g></g></g><path id="28" transform="matrix(1 0 0 -1 0 540)" clip-path="url(#14)" d="M0 207L720 207L720 207L720 288.6L720 288.6L0 288.6" stroke="none" fill="url(#7047)" /><path id="29" transform="matrix(1 0 0 -1 0 540)" clip-path="url(#15)" d="M0 207L720 207L720 207L720 0L720 0L0 0" stroke="none" fill="#9BC1FF" fill-rule="evenodd" /><path id="30" transform="matrix(1 0 0 -1 0 540)" clip-path="url(#16)" d="M0 288.6L720 288.6L720 288.6L720 540L720 540L0 540" stroke="none" fill="#9BC1FF" fill-rule="evenodd" /><path id="31" transform="matrix(1 0 0 -1 0 540)" d="M51.96 247.8L211.8 247.8L211.8 247.8L211.8 288.6L211.8 288.6L51.96 288.6z" stroke="none" fill="none" /><path id="32" transform="matrix(1 0 0 -1 0 540)" d="M51.96 247.8L211.8 247.8L211.8 247.8L211.8 288.6L211.8 288.6L51.96 288.6z" stroke="#4A7EBB" stroke-width="0.72" fill="none" /><g clip-path="url(#17)"></g><g clip-path="url(#18)"></g><g clip-path="url(#19)"></g><g clip-path="url(#20)"></g><g clip-path="url(#21)"></g><g clip-path="url(#22)"></g><g clip-path="url(#23)"></g><g clip-path="url(#24)"></g><g clip-path="url(#25)"></g><g clip-path="url(#26)"></g><g clip-path="url(#27)"><g transform="matrix(0.7210345 0 0 0.721791 45.84 347.88)"><g transform="matrix(1 0 0 1 0 0)"><image x="0" y="0" xlink:href="img_64.png" width="232" height="67" /></g></g></g><g clip-path="url(#28)"><g transform="matrix(0.7211268 0 0 0.72 52.68 353.04)"><g transform="matrix(1 0 0 1 0 0)"><image x="0" y="0" xlink:href="img_65.png" width="213" height="56" /></g></g></g><path id="68" transform="matrix(1 0 0 -1 0 540)" clip-path="url(#29)" d="M0 108.36L720 108.36L720 108.36L720 190.2L720 190.2L0 190.2" stroke="none" fill="url(#13820)" /><path id="69" transform="matrix(1 0 0 -1 0 540)" clip-path="url(#30)" d="M0 108.36L720 108.36L720 108.36L720 0L720 0L0 0" stroke="none" fill="#9BC1FF" fill-rule="evenodd" /><path id="70" transform="matrix(1 0 0 -1 0 540)" clip-path="url(#31)" d="M0 190.2L720 190.2L720 190.2L720 540L720 540L0 540" stroke="none" fill="#9BC1FF" fill-rule="evenodd" /><path id="71" transform="matrix(1 0 0 -1 0 540)" d="M49.56 149.28L209.4 149.28L209.4 149.28L209.4 190.2L209.4 190.2L49.56 190.2z" stroke="none" fill="none" /><path id="72" transform="matrix(1 0 0 -1 0 540)" d="M49.56 149.28L209.4 149.28L209.4 149.28L209.4 190.2L209.4 190.2L49.56 190.2z" stroke="#4A7EBB" stroke-width="0.72" fill="none" /><g clip-path="url(#32)"></g><g clip-path="url(#33)"><g transform="matrix(0.7221053 0 0 0.7213637 108.6 193.44)"><g transform="matrix(1 0 0 1 0 0)"><image x="0" y="0" xlink:href="img_66.png" width="57" height="88" /></g></g></g><path id="82" transform="matrix(1 0 0 -1 0 540)" clip-path="url(#34)" d="M0 232.8L720 232.8L720 232.8L720 344.64L720 344.64L0 344.64" stroke="none" fill="url(#19205)" /><path id="83" transform="matrix(1 0 0 -1 0 540)" clip-path="url(#35)" d="M0 232.8L720 232.8L720 232.8L720 0L720 0L0 0" stroke="none" fill="#9BC1FF" fill-rule="evenodd" /><path id="84" transform="matrix(1 0 0 -1 0 540)" clip-path="url(#36)" d="M0 344.64L720 344.64L720 344.64L720 540L720 540L0 540" stroke="none" fill="#9BC1FF" fill-rule="evenodd" /><path id="85" transform="matrix(1 0 0 -1 0 540)" d="M112.8 305.1L120.99 305.1L120.99 305.1L120.99 344.64L120.99 344.64L137.37 344.64L137.37 344.64L137.37 305.1L137.37 305.1L145.56 305.1L145.56 305.1L129.18 288.72z" stroke="none" fill="none" /><path id="86" transform="matrix(1 0 0 -1 0 540)" d="M112.8 305.1L120.99 305.1L120.99 305.1L120.99 344.64L120.99 344.64L137.37 344.64L137.37 344.64L137.37 305.1L137.37 305.1L145.56 305.1L145.56 305.1L129.18 288.72z" stroke="#4A7EBB" stroke-width="0.72" fill="none" /><g clip-path="url(#37)"><g transform="matrix(0.7241379 0 0 0.7226667 107.76 290.28)"><g transform="matrix(1 0 0 1 0 0)"><image x="0" y="0" xlink:href="img_67.png" width="58" height="90" /></g></g></g><path id="88" transform="matrix(1 0 0 -1 0 540)" clip-path="url(#38)" d="M0 247.68L720 247.68L720 247.68L720 132.72L720 132.72L0 132.72" stroke="none" fill="url(#24628)" /><path id="89" transform="matrix(1 0 0 -1 0 540)" clip-path="url(#39)" d="M0 247.68L720 247.68L720 247.68L720 540L720 540L0 540" stroke="none" fill="#3F80CD" fill-rule="evenodd" /><path id="90" transform="matrix(1 0 0 -1 0 540)" clip-path="url(#40)" d="M0 132.72L720 132.72L720 132.72L720 0L720 0L0 0" stroke="none" fill="#3F80CD" fill-rule="evenodd" /><path id="91" transform="matrix(1 0 0 -1 0 540)" d="M145.56 230.88L137.16 230.88L137.16 230.88L137.16 190.2L137.16 190.2L120.36 190.2L120.36 190.2L120.36 230.88L120.36 230.88L111.96 230.88L111.96 230.88L128.76 247.68z" stroke="none" fill="none" /><path id="92" transform="matrix(1 0 0 -1 0 540)" d="M145.56 230.88L137.16 230.88L137.16 230.88L137.16 190.2L137.16 190.2L120.36 190.2L120.36 190.2L120.36 230.88L120.36 230.88L111.96 230.88L111.96 230.88L128.76 247.68z" stroke="#4A7EBB" stroke-width="0.72" fill="none" /><g clip-path="url(#41)"><g transform="matrix(0.360233 0 0 0.3234518 238.08 215.04)"><g transform="matrix(1 0 0 1 0 0)"><image x="0" y="0" xlink:href="img_68.png" width="1030" height="394" /></g></g></g><g clip-path="url(#42)"></g><g clip-path="url(#43)"></g><g clip-path="url(#44)"></g><g clip-path="url(#45)"></g><g clip-path="url(#46)"></g></g></g></svg>