<svg xmlns="http://www.w3.org/2000/svg" xmlns:xlink="http://www.w3.org/1999/xlink" id="body_13" preserveAspectRatio="xMinYMin meet" viewBox="0 0 960 720"><defs><clipPath id="1"><path id="" clip-rule="evenodd" d="M0 540L0 0L0 0L720 0L720 0L720 540L720 540L0 540z" /></clipPath><clipPath id="2"><path id="" clip-rule="evenodd" d="M0 539.9999L720 539.9999L720 539.9999L720 -0.0001220703L720 -0.0001220703L0 -0.0001220703z" /></clipPath><clipPath id="3"><path id="" clip-rule="evenodd" d="M0 539.9999L720 539.9999L720 539.9999L720 -6.103516E-05L720 -6.103516E-05L0 -6.103516E-05z" /></clipPath><clipPath id="4"><path id="" clip-rule="evenodd" d="M0 539.9998L720 539.9998L720 539.9998L720 -0.0001831055L720 -0.0001831055L0 -0.0001831055z" /></clipPath><clipPath id="5"><path id="" clip-rule="evenodd" d="M1.0729E-05 540L720 540L720 540L720 0L720 0L1.0729E-05 0z" /></clipPath><clipPath id="6"><path id="" clip-rule="evenodd" d="M7.612E-06 0L720 0L720 0L720 539.9998L720 539.9998L7.612E-06 539.9998" /></clipPath><clipPath id="7"><path id="" clip-rule="evenodd" d="M7.612E-06 0L720 0L720 0L720 539.9998L720 539.9998L7.612E-06 539.9998" /></clipPath><clipPath id="8"><path id="" clip-rule="evenodd" d="M1.0729E-05 540L720 540L720 540L720 0L720 0L1.0729E-05 0z" /></clipPath><clipPath id="9"><path id="" clip-rule="evenodd" d="M1.0729E-05 540L720 540L720 540L720 0L720 0L1.0729E-05 0z" /></clipPath><clipPath id="10"><path id="" clip-rule="evenodd" d="M1.0729E-05 540L720 540L720 540L720 0L720 0L1.0729E-05 0z" /></clipPath><clipPath id="11"><path id="" clip-rule="evenodd" d="M1.0729E-05 540L720 540L720 540L720 0L720 0L1.0729E-05 0z" /></clipPath><clipPath id="12"><path id="" clip-rule="evenodd" d="M1.0729E-05 540L720 540L720 540L720 0L720 0L1.0729E-05 0z" /></clipPath><clipPath id="13"><path id="" clip-rule="evenodd" d="M1.0729E-05 540L720 540L720 540L720 0L720 0L1.0729E-05 0z" /></clipPath><clipPath id="14"><path id="" clip-rule="evenodd" d="M0 539.9999L720 539.9999L720 539.9999L720 -6.103516E-05L720 -6.103516E-05L0 -6.103516E-05z" /></clipPath><clipPath id="15"><path id="" clip-rule="evenodd" d="M0 539.9999L720 539.9999L720 539.9999L720 -6.103516E-05L720 -6.103516E-05L0 -6.103516E-05z" /></clipPath><clipPath id="16"><path id="" clip-rule="evenodd" d="M36 394.72C 36 405.3 44.578 413.88 55.16 413.88L55.16 413.88L250.12 413.88C 260.7 413.88 269.28 405.3 269.28 394.72L269.28 394.72L269.28 318.08C 269.28 307.5 260.7 298.92 250.12 298.92L250.12 298.92L55.16 298.92C 44.578 298.92 36 307.5 36 318.08z" /></clipPath><linearGradient gradientUnits="userSpaceOnUse" transform="matrix(1 0 0 1 0 0)" id="2634" x1="152.64" y1="298.92" x2="152.64" y2="413.88"><stop stop-color="#3F80CD" offset="0%" /><stop stop-color="#3F80CD" offset="1%" /><stop stop-color="#4080CD" offset="2%" /><stop stop-color="#4181CD" offset="3%" /><stop stop-color="#4181CE" offset="4%" /><stop stop-color="#4181CE" offset="5%" /><stop stop-color="#4281CE" offset="6%" /><stop stop-color="#4282CE" offset="7%" /><stop stop-color="#4382CE" offset="8%" /><stop stop-color="#4482CF" offset="9%" /><stop stop-color="#4583CF" offset="10%" /><stop stop-color="#4583CF" offset="11%" /><stop stop-color="#4684CF" offset="12%" /><stop stop-color="#4784D0" offset="13%" /><stop stop-color="#4885D0" offset="14%" /><stop stop-color="#4985D0" offset="15%" /><stop stop-color="#4A86D1" offset="16%" /><stop stop-color="#4B86D1" offset="17%" /><stop stop-color="#4C87D2" offset="18%" /><stop stop-color="#4D87D2" offset="19%" /><stop stop-color="#4E88D3" offset="20%" /><stop stop-color="#5089D3" offset="21%" /><stop stop-color="#5189D3" offset="22%" /><stop stop-color="#528AD4" offset="23%" /><stop stop-color="#538BD4" offset="24%" /><stop stop-color="#548CD5" offset="25%" /><stop stop-color="#558CD5" offset="26%" /><stop stop-color="#578DD6" offset="27%" /><stop stop-color="#588ED7" offset="28%" /><stop stop-color="#598FD7" offset="29%" /><stop stop-color="#5B90D8" offset="30%" /><stop stop-color="#5C91D9" offset="31%" /><stop stop-color="#5E92DA" offset="32%" /><stop stop-color="#5F92DA" offset="33%" /><stop stop-color="#6194DB" offset="34%" /><stop stop-color="#6294DB" offset="35%" /><stop stop-color="#6395DC" offset="36%" /><stop stop-color="#6596DD" offset="37%" /><stop stop-color="#6798DE" offset="38%" /><stop stop-color="#6898DE" offset="39%" /><stop stop-color="#6A9ADF" offset="40%" /><stop stop-color="#6B9BE0" offset="41%" /><stop stop-color="#6C9CE1" offset="42%" /><stop stop-color="#6E9DE2" offset="43%" /><stop stop-color="#6F9EE3" offset="44%" /><stop stop-color="#719FE4" offset="45%" /><stop stop-color="#72A0E4" offset="46%" /><stop stop-color="#74A1E5" offset="47%" /><stop stop-color="#75A2E6" offset="48%" /><stop stop-color="#77A3E7" offset="49%" /><stop stop-color="#78A4E8" offset="50%" /><stop stop-color="#79A5E8" offset="51%" /><stop stop-color="#7BA7E9" offset="52%" /><stop stop-color="#7CA8EA" offset="53%" /><stop stop-color="#7DA9EB" offset="54%" /><stop stop-color="#7FA9EC" offset="55%" /><stop stop-color="#80ABED" offset="56%" /><stop stop-color="#81ABED" offset="57%" /><stop stop-color="#82ADEE" offset="58%" /><stop stop-color="#83ADEF" offset="59%" /><stop stop-color="#85AEEF" offset="60%" /><stop stop-color="#86AFF0" offset="61%" /><stop stop-color="#87B0F1" offset="62%" /><stop stop-color="#88B1F2" offset="63%" /><stop stop-color="#89B2F2" offset="64%" /><stop stop-color="#8AB3F3" offset="65%" /><stop stop-color="#8BB3F4" offset="66%" /><stop stop-color="#8CB4F4" offset="67%" /><stop stop-color="#8DB5F5" offset="68%" /><stop stop-color="#8EB6F5" offset="69%" /><stop stop-color="#8EB6F6" offset="70%" /><stop stop-color="#8FB7F7" offset="71%" /><stop stop-color="#90B8F7" offset="72%" /><stop stop-color="#91B8F8" offset="73%" /><stop stop-color="#91B9F8" offset="74%" /><stop stop-color="#92B9F9" offset="75%" /><stop stop-color="#93BAF9" offset="76%" /><stop stop-color="#93BAF9" offset="77%" /><stop stop-color="#94BBFA" offset="78%" /><stop stop-color="#94BBFA" offset="79%" /><stop stop-color="#95BCFB" offset="80%" /><stop stop-color="#95BCFB" offset="81%" /><stop stop-color="#96BDFB" offset="82%" /><stop stop-color="#97BDFC" offset="83%" /><stop stop-color="#97BDFC" offset="84%" /><stop stop-color="#97BEFC" offset="85%" /><stop stop-color="#98BEFC" offset="86%" /><stop stop-color="#98BEFD" offset="87%" /><stop stop-color="#98BFFD" offset="88%" /><stop stop-color="#99BFFD" offset="89%" /><stop stop-color="#99BFFE" offset="90%" /><stop stop-color="#99C0FE" offset="91%" /><stop stop-color="#9AC0FE" offset="92%" /><stop stop-color="#9AC0FE" offset="93%" /><stop stop-color="#9AC0FE" offset="94%" /><stop stop-color="#9AC0FE" offset="95%" /><stop stop-color="#9AC0FF" offset="96%" /><stop stop-color="#9BC1FF" offset="97%" /><stop stop-color="#9BC1FF" offset="98%" /><stop stop-color="#9BC1FF" offset="99%" /><stop stop-color="#9BC1FF" offset="100%" /></linearGradient><clipPath id="17"><path id="" clip-rule="evenodd" d="M36 394.72C 36 405.3 44.578 413.88 55.16 413.88L55.16 413.88L250.12 413.88C 260.7 413.88 269.28 405.3 269.28 394.72L269.28 394.72L269.28 318.08C 269.28 307.5 260.7 298.92 250.12 298.92L250.12 298.92L55.16 298.92C 44.578 298.92 36 307.5 36 318.08z" /></clipPath><clipPath id="18"><path id="" clip-rule="evenodd" d="M36 394.72C 36 405.3 44.578 413.88 55.16 413.88L55.16 413.88L250.12 413.88C 260.7 413.88 269.28 405.3 269.28 394.72L269.28 394.72L269.28 318.08C 269.28 307.5 260.7 298.92 250.12 298.92L250.12 298.92L55.16 298.92C 44.578 298.92 36 307.5 36 318.08z" /></clipPath><clipPath id="19"><path id="" clip-rule="evenodd" d="M1.0729E-05 540L720 540L720 540L720 0L720 0L1.0729E-05 0z" /></clipPath><clipPath id="20"><path id="" clip-rule="evenodd" d="M7.612E-06 0L720 0L720 0L720 539.9999L720 539.9999L7.612E-06 539.9999" /></clipPath><clipPath id="21"><path id="" clip-rule="evenodd" d="M7.612E-06 0L720 0L720 0L720 539.9999L720 539.9999L7.612E-06 539.9999" /></clipPath><clipPath id="22"><path id="" clip-rule="evenodd" d="M1.0729E-05 540L720 540L720 540L720 0L720 0L1.0729E-05 0z" /></clipPath><clipPath id="23"><path id="" clip-rule="evenodd" d="M1.0729E-05 540L720 540L720 540L720 0L720 0L1.0729E-05 0z" /></clipPath><clipPath id="24"><path id="" clip-rule="evenodd" d="M1.0729E-05 540L720 540L720 540L720 0L720 0L1.0729E-05 0z" /></clipPath><clipPath id="25"><path id="" clip-rule="evenodd" d="M1.0729E-05 540L720 540L720 540L720 0L720 0L1.0729E-05 0z" /></clipPath><clipPath id="26"><path id="" clip-rule="evenodd" d="M1.0729E-05 540L720 540L720 540L720 0L720 0L1.0729E-05 0z" /></clipPath><clipPath id="27"><path id="" clip-rule="evenodd" d="M1.0729E-05 540L720 540L720 540L720 0L720 0L1.0729E-05 0z" /></clipPath><clipPath id="28"><path id="" clip-rule="evenodd" d="M0 539.9999L720 539.9999L720 539.9999L720 -6.103516E-05L720 -6.103516E-05L0 -6.103516E-05z" /></clipPath><clipPath id="29"><path id="" clip-rule="evenodd" d="M0 539.9999L720 539.9999L720 539.9999L720 -6.103516E-05L720 -6.103516E-05L0 -6.103516E-05z" /></clipPath><clipPath id="30"><path id="" clip-rule="evenodd" d="M36 274.14C 36 284.71 44.569 293.28 55.14 293.28L55.14 293.28L250.14 293.28C 260.71 293.28 269.28 284.71 269.28 274.14L269.28 274.14L269.28 197.58C 269.28 187.01 260.71 178.44 250.14 178.44L250.14 178.44L55.14 178.44C 44.569 178.44 36 187.01 36 197.58z" /></clipPath><linearGradient gradientUnits="userSpaceOnUse" transform="matrix(1 0 0 1 0 0)" id="9583" x1="152.64" y1="63.6" x2="152.64" y2="293.28"><stop stop-color="#9BC1FF" offset="0%" /><stop stop-color="#9BC1FF" offset="1%" /><stop stop-color="#9AC0FF" offset="2%" /><stop stop-color="#9AC0FE" offset="3%" /><stop stop-color="#9AC0FE" offset="4%" /><stop stop-color="#99BFFE" offset="5%" /><stop stop-color="#98BFFD" offset="6%" /><stop stop-color="#98BEFC" offset="7%" /><stop stop-color="#97BDFC" offset="8%" /><stop stop-color="#96BDFB" offset="9%" /><stop stop-color="#95BCFB" offset="10%" /><stop stop-color="#94BBFA" offset="11%" /><stop stop-color="#93BAF9" offset="12%" /><stop stop-color="#91B9F8" offset="13%" /><stop stop-color="#90B7F7" offset="14%" /><stop stop-color="#8EB6F6" offset="15%" /><stop stop-color="#8DB5F5" offset="16%" /><stop stop-color="#8BB3F4" offset="17%" /><stop stop-color="#89B2F2" offset="18%" /><stop stop-color="#87B0F1" offset="19%" /><stop stop-color="#85AEEF" offset="20%" /><stop stop-color="#82ADEE" offset="21%" /><stop stop-color="#80ABED" offset="22%" /><stop stop-color="#7DA8EB" offset="23%" /><stop stop-color="#7AA6E9" offset="24%" /><stop stop-color="#78A4E8" offset="25%" /><stop stop-color="#75A2E6" offset="26%" /><stop stop-color="#72A0E4" offset="27%" /><stop stop-color="#6F9EE3" offset="28%" /><stop stop-color="#6C9CE1" offset="29%" /><stop stop-color="#6A9ADF" offset="30%" /><stop stop-color="#6798DE" offset="31%" /><stop stop-color="#6395DC" offset="32%" /><stop stop-color="#6093DB" offset="33%" /><stop stop-color="#5D91D9" offset="34%" /><stop stop-color="#5B90D8" offset="35%" /><stop stop-color="#588ED7" offset="36%" /><stop stop-color="#558CD5" offset="37%" /><stop stop-color="#538BD4" offset="38%" /><stop stop-color="#5189D3" offset="39%" /><stop stop-color="#4E88D3" offset="40%" /><stop stop-color="#4B86D2" offset="41%" /><stop stop-color="#4985D1" offset="42%" /><stop stop-color="#4884D0" offset="43%" /><stop stop-color="#4683CF" offset="44%" /><stop stop-color="#4583CF" offset="45%" /><stop stop-color="#4382CE" offset="46%" /><stop stop-color="#4281CE" offset="47%" /><stop stop-color="#4181CE" offset="48%" /><stop stop-color="#4080CD" offset="49%" /><stop stop-color="#3F80CD" offset="50%" /><stop stop-color="#4080CD" offset="51%" /><stop stop-color="#4181CE" offset="52%" /><stop stop-color="#4281CE" offset="53%" /><stop stop-color="#4382CE" offset="54%" /><stop stop-color="#4583CF" offset="55%" /><stop stop-color="#4683CF" offset="56%" /><stop stop-color="#4884D0" offset="57%" /><stop stop-color="#4985D1" offset="58%" /><stop stop-color="#4B86D2" offset="59%" /><stop stop-color="#4E88D3" offset="60%" /><stop stop-color="#5189D3" offset="61%" /><stop stop-color="#538BD4" offset="62%" /><stop stop-color="#558CD5" offset="63%" /><stop stop-color="#588ED7" offset="64%" /><stop stop-color="#5B90D8" offset="65%" /><stop stop-color="#5D91D9" offset="66%" /><stop stop-color="#6093DB" offset="67%" /><stop stop-color="#6395DC" offset="68%" /><stop stop-color="#6798DE" offset="69%" /><stop stop-color="#6A9ADF" offset="70%" /><stop stop-color="#6C9CE1" offset="71%" /><stop stop-color="#6F9EE3" offset="72%" /><stop stop-color="#72A0E4" offset="73%" /><stop stop-color="#75A2E6" offset="74%" /><stop stop-color="#78A4E8" offset="75%" /><stop stop-color="#7AA6E9" offset="76%" /><stop stop-color="#7DA8EB" offset="77%" /><stop stop-color="#80ABED" offset="78%" /><stop stop-color="#82ADEE" offset="79%" /><stop stop-color="#85AEEF" offset="80%" /><stop stop-color="#87B0F1" offset="81%" /><stop stop-color="#89B2F2" offset="82%" /><stop stop-color="#8BB3F4" offset="83%" /><stop stop-color="#8DB5F5" offset="84%" /><stop stop-color="#8EB6F6" offset="85%" /><stop stop-color="#90B7F7" offset="86%" /><stop stop-color="#91B9F8" offset="87%" /><stop stop-color="#93BAF9" offset="88%" /><stop stop-color="#94BBFA" offset="89%" /><stop stop-color="#95BCFB" offset="90%" /><stop stop-color="#96BDFB" offset="91%" /><stop stop-color="#97BDFC" offset="92%" /><stop stop-color="#98BEFC" offset="93%" /><stop stop-color="#98BFFD" offset="94%" /><stop stop-color="#99BFFE" offset="95%" /><stop stop-color="#9AC0FE" offset="96%" /><stop stop-color="#9AC0FE" offset="97%" /><stop stop-color="#9AC0FF" offset="98%" /><stop stop-color="#9BC1FF" offset="99%" /><stop stop-color="#9BC1FF" offset="100%" /></linearGradient><clipPath id="31"><path id="" clip-rule="evenodd" d="M36 274.14C 36 284.71 44.569 293.28 55.14 293.28L55.14 293.28L250.14 293.28C 260.71 293.28 269.28 284.71 269.28 274.14L269.28 274.14L269.28 197.58C 269.28 187.01 260.71 178.44 250.14 178.44L250.14 178.44L55.14 178.44C 44.569 178.44 36 187.01 36 197.58z" /></clipPath><clipPath id="32"><path id="" clip-rule="evenodd" d="M36 274.14C 36 284.71 44.569 293.28 55.14 293.28L55.14 293.28L250.14 293.28C 260.71 293.28 269.28 284.71 269.28 274.14L269.28 274.14L269.28 197.58C 269.28 187.01 260.71 178.44 250.14 178.44L250.14 178.44L55.14 178.44C 44.569 178.44 36 187.01 36 197.58z" /></clipPath><clipPath id="33"><path id="" clip-rule="evenodd" d="M1.0729E-05 540L720 540L720 540L720 0L720 0L1.0729E-05 0z" /></clipPath><clipPath id="34"><path id="" clip-rule="evenodd" d="M7.612E-06 0L720 0L720 0L720 539.9999L720 539.9999L7.612E-06 539.9999" /></clipPath><clipPath id="35"><path id="" clip-rule="evenodd" d="M7.612E-06 0L720 0L720 0L720 539.9999L720 539.9999L7.612E-06 539.9999" /></clipPath><clipPath id="36"><path id="" clip-rule="evenodd" d="M1.0729E-05 540L720 540L720 540L720 0L720 0L1.0729E-05 0z" /></clipPath><clipPath id="37"><path id="" clip-rule="evenodd" d="M1.0729E-05 540L720 540L720 540L720 0L720 0L1.0729E-05 0z" /></clipPath><clipPath id="38"><path id="" clip-rule="evenodd" d="M1.0729E-05 540L720 540L720 540L720 0L720 0L1.0729E-05 0z" /></clipPath><clipPath id="39"><path id="" clip-rule="evenodd" d="M1.0729E-05 540L720 540L720 540L720 0L720 0L1.0729E-05 0z" /></clipPath><clipPath id="40"><path id="" clip-rule="evenodd" d="M1.0729E-05 540L720 540L720 540L720 0L720 0L1.0729E-05 0z" /></clipPath><clipPath id="41"><path id="" clip-rule="evenodd" d="M1.0729E-05 540L720 540L720 540L720 0L720 0L1.0729E-05 0z" /></clipPath><clipPath id="42"><path id="" clip-rule="evenodd" d="M1.0729E-05 540L720 540L720 540L720 0L720 0L1.0729E-05 0z" /></clipPath><clipPath id="43"><path id="" clip-rule="evenodd" d="M1.0729E-05 540L720 540L720 540L720 0L720 0L1.0729E-05 0z" /></clipPath><clipPath id="44"><path id="" clip-rule="evenodd" d="M0 539.9999L720 539.9999L720 539.9999L720 -6.103516E-05L720 -6.103516E-05L0 -6.103516E-05z" /></clipPath><clipPath id="45"><path id="" clip-rule="evenodd" d="M0 539.9999L720 539.9999L720 539.9999L720 -6.103516E-05L720 -6.103516E-05L0 -6.103516E-05z" /></clipPath><clipPath id="46"><path id="" clip-rule="evenodd" d="M36 153.54C 36 164.11 44.569 172.68 55.14 172.68L55.14 172.68L250.14 172.68C 260.71 172.68 269.28 164.11 269.28 153.54L269.28 153.54L269.28 76.981C 269.28 66.41 260.71 57.84 250.14 57.84L250.14 57.84L55.14 57.84C 44.569 57.84 36 66.41 36 76.981z" /></clipPath><linearGradient gradientUnits="userSpaceOnUse" transform="matrix(1 0 0 1 0 0)" id="16819" x1="152.64" y1="-57" x2="152.64" y2="172.68"><stop stop-color="#9BC1FF" offset="0%" /><stop stop-color="#9BC1FF" offset="1%" /><stop stop-color="#9AC0FF" offset="2%" /><stop stop-color="#9AC0FE" offset="3%" /><stop stop-color="#9AC0FE" offset="4%" /><stop stop-color="#99BFFE" offset="5%" /><stop stop-color="#98BFFD" offset="6%" /><stop stop-color="#98BEFC" offset="7%" /><stop stop-color="#97BDFC" offset="8%" /><stop stop-color="#96BDFB" offset="9%" /><stop stop-color="#95BCFB" offset="10%" /><stop stop-color="#94BBFA" offset="11%" /><stop stop-color="#93BAF9" offset="12%" /><stop stop-color="#91B9F8" offset="13%" /><stop stop-color="#90B7F7" offset="14%" /><stop stop-color="#8EB6F6" offset="15%" /><stop stop-color="#8DB5F5" offset="16%" /><stop stop-color="#8BB3F4" offset="17%" /><stop stop-color="#89B2F2" offset="18%" /><stop stop-color="#87B0F1" offset="19%" /><stop stop-color="#85AEEF" offset="20%" /><stop stop-color="#82ADEE" offset="21%" /><stop stop-color="#80ABED" offset="22%" /><stop stop-color="#7DA8EB" offset="23%" /><stop stop-color="#7AA6E9" offset="24%" /><stop stop-color="#78A4E8" offset="25%" /><stop stop-color="#75A2E6" offset="26%" /><stop stop-color="#72A0E4" offset="27%" /><stop stop-color="#6F9EE3" offset="28%" /><stop stop-color="#6C9CE1" offset="29%" /><stop stop-color="#6A9ADF" offset="30%" /><stop stop-color="#6798DE" offset="31%" /><stop stop-color="#6395DC" offset="32%" /><stop stop-color="#6093DB" offset="33%" /><stop stop-color="#5D91D9" offset="34%" /><stop stop-color="#5B90D8" offset="35%" /><stop stop-color="#588ED7" offset="36%" /><stop stop-color="#558CD5" offset="37%" /><stop stop-color="#538BD4" offset="38%" /><stop stop-color="#5189D3" offset="39%" /><stop stop-color="#4E88D3" offset="40%" /><stop stop-color="#4B86D2" offset="41%" /><stop stop-color="#4985D1" offset="42%" /><stop stop-color="#4884D0" offset="43%" /><stop stop-color="#4683CF" offset="44%" /><stop stop-color="#4583CF" offset="45%" /><stop stop-color="#4382CE" offset="46%" /><stop stop-color="#4281CE" offset="47%" /><stop stop-color="#4181CE" offset="48%" /><stop stop-color="#4080CD" offset="49%" /><stop stop-color="#3F80CD" offset="50%" /><stop stop-color="#4080CD" offset="51%" /><stop stop-color="#4181CE" offset="52%" /><stop stop-color="#4281CE" offset="53%" /><stop stop-color="#4382CE" offset="54%" /><stop stop-color="#4583CF" offset="55%" /><stop stop-color="#4683CF" offset="56%" /><stop stop-color="#4884D0" offset="57%" /><stop stop-color="#4985D1" offset="58%" /><stop stop-color="#4B86D2" offset="59%" /><stop stop-color="#4E88D3" offset="60%" /><stop stop-color="#5189D3" offset="61%" /><stop stop-color="#538BD4" offset="62%" /><stop stop-color="#558CD5" offset="63%" /><stop stop-color="#588ED7" offset="64%" /><stop stop-color="#5B90D8" offset="65%" /><stop stop-color="#5D91D9" offset="66%" /><stop stop-color="#6093DB" offset="67%" /><stop stop-color="#6395DC" offset="68%" /><stop stop-color="#6798DE" offset="69%" /><stop stop-color="#6A9ADF" offset="70%" /><stop stop-color="#6C9CE1" offset="71%" /><stop stop-color="#6F9EE3" offset="72%" /><stop stop-color="#72A0E4" offset="73%" /><stop stop-color="#75A2E6" offset="74%" /><stop stop-color="#78A4E8" offset="75%" /><stop stop-color="#7AA6E9" offset="76%" /><stop stop-color="#7DA8EB" offset="77%" /><stop stop-color="#80ABED" offset="78%" /><stop stop-color="#82ADEE" offset="79%" /><stop stop-color="#85AEEF" offset="80%" /><stop stop-color="#87B0F1" offset="81%" /><stop stop-color="#89B2F2" offset="82%" /><stop stop-color="#8BB3F4" offset="83%" /><stop stop-color="#8DB5F5" offset="84%" /><stop stop-color="#8EB6F6" offset="85%" /><stop stop-color="#90B7F7" offset="86%" /><stop stop-color="#91B9F8" offset="87%" /><stop stop-color="#93BAF9" offset="88%" /><stop stop-color="#94BBFA" offset="89%" /><stop stop-color="#95BCFB" offset="90%" /><stop stop-color="#96BDFB" offset="91%" /><stop stop-color="#97BDFC" offset="92%" /><stop stop-color="#98BEFC" offset="93%" /><stop stop-color="#98BFFD" offset="94%" /><stop stop-color="#99BFFE" offset="95%" /><stop stop-color="#9AC0FE" offset="96%" /><stop stop-color="#9AC0FE" offset="97%" /><stop stop-color="#9AC0FF" offset="98%" /><stop stop-color="#9BC1FF" offset="99%" /><stop stop-color="#9BC1FF" offset="100%" /></linearGradient><clipPath id="47"><path id="" clip-rule="evenodd" d="M36 153.54C 36 164.11 44.569 172.68 55.14 172.68L55.14 172.68L250.14 172.68C 260.71 172.68 269.28 164.11 269.28 153.54L269.28 153.54L269.28 76.981C 269.28 66.41 260.71 57.84 250.14 57.84L250.14 57.84L55.14 57.84C 44.569 57.84 36 66.41 36 76.981z" /></clipPath><clipPath id="48"><path id="" clip-rule="evenodd" d="M36 153.54C 36 164.11 44.569 172.68 55.14 172.68L55.14 172.68L250.14 172.68C 260.71 172.68 269.28 164.11 269.28 153.54L269.28 153.54L269.28 76.981C 269.28 66.41 260.71 57.84 250.14 57.84L250.14 57.84L55.14 57.84C 44.569 57.84 36 66.41 36 76.981z" /></clipPath><clipPath id="49"><path id="" clip-rule="evenodd" d="M1.0729E-05 540L720 540L720 540L720 0L720 0L1.0729E-05 0z" /></clipPath></defs><g transform="matrix(1.333333 0 0 1.333333 0 0)"><g clip-path="url(#1)"><g clip-path="url(#2)"><path id="1" transform="matrix(1 0 0 -1 0 540)" d="M0 6.1035E-05L720 6.1035E-05L720 6.1035E-05L720 540.0001L720 540.0001L0 540.0001z" stroke="none" fill="#FFFFFF" fill-rule="evenodd" /></g><g clip-path="url(#3)"><g transform="matrix(0.5623125 0 0 0.56225 0.12 -6.103516E-05)"><g transform="matrix(1 0 0 1 0 0)"><image x="0" y="0" xlink:href="img_01.png" width="1280" height="960" /></g></g></g><g clip-path="url(#4)"><g transform="matrix(0.5623125 0 0 0.56225 0.12 1.320007)"><g transform="matrix(1 0 0 1 0 0)"><image x="0" y="0" xlink:href="img_03.png" width="1280" height="960" /></g></g></g><g clip-path="url(#5)"></g><g clip-path="url(#6)"><path id="10" transform="matrix(1 0 0 -1 0 540)" d="M684 387.04L684 325.76C 684 317.3 677.14 310.44 668.68 310.44L668.68 310.44L269.28 310.44L269.28 310.44L269.28 402.36L269.28 402.36L668.68 402.36C 677.14 402.36 684 395.5 684 387.04z" stroke="none" fill="#D0D8E8" fill-rule="evenodd" fill-opacity="0.8980392" /></g><g clip-path="url(#7)"><path id="11" transform="matrix(1 0 0 -1 0 540)" d="M684 387.04L684 325.76C 684 317.3 677.14 310.44 668.68 310.44L668.68 310.44L269.28 310.44L269.28 310.44L269.28 402.36L269.28 402.36L668.68 402.36C 677.14 402.36 684 395.5 684 387.04z" stroke="#D0D8E8" stroke-width="0.72" fill="none" stroke-opacity="0.8980392" /></g><g clip-path="url(#8)"></g><g clip-path="url(#9)"></g><g clip-path="url(#10)"></g><g clip-path="url(#11)"></g><g clip-path="url(#12)"></g><g clip-path="url(#13)"></g><g clip-path="url(#14)"><g transform="matrix(0.7207208 0 0 0.72 32.64 124.56)"><g transform="matrix(1 0 0 1 0 0)"><image x="0" y="0" xlink:href="img_45.png" width="333" height="169" /></g></g></g><g clip-path="url(#15)"><g transform="matrix(0.7204478 0 0 0.7167123 56.04 161.16)"><g transform="matrix(1 0 0 1 0 0)"><image x="0" y="0" xlink:href="img_46.png" width="268" height="73" /></g></g></g><path id="46" transform="matrix(1 0 0 -1 0 540)" clip-path="url(#16)" d="M0 298.92L720 298.92L720 298.92L720 413.88L720 413.88L0 413.88" stroke="none" fill="url(#2634)" /><path id="47" transform="matrix(1 0 0 -1 0 540)" clip-path="url(#17)" d="M0 298.92L720 298.92L720 298.92L720 0L720 0L0 0" stroke="none" fill="#3F80CD" fill-rule="evenodd" /><path id="48" transform="matrix(1 0 0 -1 0 540)" clip-path="url(#18)" d="M0 413.88L720 413.88L720 413.88L720 540L720 540L0 540" stroke="none" fill="#9BC1FF" fill-rule="evenodd" /><path id="49" transform="matrix(1 0 0 -1 0 540)" d="M36 394.72C 36 405.3 44.578 413.88 55.16 413.88L55.16 413.88L250.12 413.88C 260.7 413.88 269.28 405.3 269.28 394.72L269.28 394.72L269.28 318.08C 269.28 307.5 260.7 298.92 250.12 298.92L250.12 298.92L55.16 298.92C 44.578 298.92 36 307.5 36 318.08z" stroke="none" fill="none" /><g clip-path="url(#19)"></g><g clip-path="url(#20)"><path id="58" transform="matrix(1 0 0 -1 0 540)" d="M684 266.44L684 205.16C 684 196.7 677.14 189.84 668.68 189.84L668.68 189.84L269.28 189.84L269.28 189.84L269.28 281.76L269.28 281.76L668.68 281.76C 677.14 281.76 684 274.9 684 266.44z" stroke="none" fill="#D0D8E8" fill-rule="evenodd" fill-opacity="0.8980392" /></g><g clip-path="url(#21)"><path id="59" transform="matrix(1 0 0 -1 0 540)" d="M684 266.44L684 205.16C 684 196.7 677.14 189.84 668.68 189.84L668.68 189.84L269.28 189.84L269.28 189.84L269.28 281.76L269.28 281.76L668.68 281.76C 677.14 281.76 684 274.9 684 266.44z" stroke="#D0D8E8" stroke-width="0.72" fill="none" stroke-opacity="0.8980392" /></g><g clip-path="url(#22)"></g><g clip-path="url(#23)"></g><g clip-path="url(#24)"></g><g clip-path="url(#25)"></g><g clip-path="url(#26)"></g><g clip-path="url(#27)"></g><g clip-path="url(#28)"><g transform="matrix(0.7207208 0 0 0.71929 32.64 245.16)"><g transform="matrix(1 0 0 1 0 0)"><image x="0" y="0" xlink:href="img_47.png" width="333" height="169" /></g></g></g><g clip-path="url(#29)"><g transform="matrix(0.721 0 0 0.7167123 66.12 281.76)"><g transform="matrix(1 0 0 1 0 0)"><image x="0" y="0" xlink:href="img_48.png" width="240" height="73" /></g></g></g><path id="115" transform="matrix(1 0 0 -1 0 540)" clip-path="url(#30)" d="M0 63.6L720 63.6L720 63.6L720 293.28L720 293.28L0 293.28" stroke="none" fill="url(#9583)" /><path id="116" transform="matrix(1 0 0 -1 0 540)" clip-path="url(#31)" d="M0 63.6L720 63.6L720 63.6L720 0L720 0L0 0" stroke="none" fill="#9BC1FF" fill-rule="evenodd" /><path id="117" transform="matrix(1 0 0 -1 0 540)" clip-path="url(#32)" d="M0 293.28L720 293.28L720 293.28L720 540L720 540L0 540" stroke="none" fill="#9BC1FF" fill-rule="evenodd" /><path id="118" transform="matrix(1 0 0 -1 0 540)" d="M36 274.14C 36 284.71 44.569 293.28 55.14 293.28L55.14 293.28L250.14 293.28C 260.71 293.28 269.28 284.71 269.28 274.14L269.28 274.14L269.28 197.58C 269.28 187.01 260.71 178.44 250.14 178.44L250.14 178.44L55.14 178.44C 44.569 178.44 36 187.01 36 197.58z" stroke="none" fill="none" /><g clip-path="url(#33)"></g><g clip-path="url(#34)"><path id="126" transform="matrix(1 0 0 -1 0 540)" d="M684 145.84L684 84.56C 684 76.099 677.14 69.24 668.68 69.24L668.68 69.24L269.28 69.24L269.28 69.24L269.28 161.16L269.28 161.16L668.68 161.16C 677.14 161.16 684 154.3 684 145.84z" stroke="none" fill="#D0D8E8" fill-rule="evenodd" fill-opacity="0.8980392" /></g><g clip-path="url(#35)"><path id="127" transform="matrix(1 0 0 -1 0 540)" d="M684 145.84L684 84.56C 684 76.099 677.14 69.24 668.68 69.24L668.68 69.24L269.28 69.24L269.28 69.24L269.28 161.16L269.28 161.16L668.68 161.16C 677.14 161.16 684 154.3 684 145.84z" stroke="#D0D8E8" stroke-width="0.72" fill="none" stroke-opacity="0.8980392" /></g><g clip-path="url(#36)"></g><g clip-path="url(#37)"></g><g clip-path="url(#38)"></g><g clip-path="url(#39)"></g><g clip-path="url(#40)"></g><g clip-path="url(#41)"></g><g clip-path="url(#42)"></g><g clip-path="url(#43)"></g><g clip-path="url(#44)"><g transform="matrix(0.7207208 0 0 0.71929 32.64 365.76)"><g transform="matrix(1 0 0 1 0 0)"><image x="0" y="0" xlink:href="img_47.png" width="333" height="169" /></g></g></g><g clip-path="url(#45)"><g transform="matrix(0.7183099 0 0 0.7167123 76.08 402.36)"><g transform="matrix(1 0 0 1 0 0)"><image x="0" y="0" xlink:href="img_49.png" width="213" height="73" /></g></g></g><path id="176" transform="matrix(1 0 0 -1 0 540)" clip-path="url(#46)" d="M0 -57L720 -57L720 -57L720 172.68L720 172.68L0 172.68" stroke="none" fill="url(#16819)" /><path id="177" transform="matrix(1 0 0 -1 0 540)" clip-path="url(#47)" d="M0 -57L720 -57L720 -57L720 0L720 0L0 0" stroke="none" fill="#9BC1FF" fill-rule="evenodd" /><path id="178" transform="matrix(1 0 0 -1 0 540)" clip-path="url(#48)" d="M0 172.68L720 172.68L720 172.68L720 540L720 540L0 540" stroke="none" fill="#9BC1FF" fill-rule="evenodd" /><path id="179" transform="matrix(1 0 0 -1 0 540)" d="M36 153.54C 36 164.11 44.569 172.68 55.14 172.68L55.14 172.68L250.14 172.68C 260.71 172.68 269.28 164.11 269.28 153.54L269.28 153.54L269.28 76.981C 269.28 66.41 260.71 57.84 250.14 57.84L250.14 57.84L55.14 57.84C 44.569 57.84 36 66.41 36 76.981z" stroke="none" fill="none" /><g clip-path="url(#49)"></g></g></g></svg>