<svg xmlns="http://www.w3.org/2000/svg" xmlns:xlink="http://www.w3.org/1999/xlink" id="body_4" preserveAspectRatio="xMinYMin meet" viewBox="0 0 960 720"><defs><clipPath id="1"><path id="" clip-rule="evenodd" d="M0 540L0 0L0 0L720 0L720 0L720 540L720 540L0 540z" /></clipPath><clipPath id="2"><path id="" clip-rule="evenodd" d="M0 539.9999L720 539.9999L720 539.9999L720 -0.0001220703L720 -0.0001220703L0 -0.0001220703z" /></clipPath><clipPath id="3"><path id="" clip-rule="evenodd" d="M0 539.9999L720 539.9999L720 539.9999L720 -6.103516E-05L720 -6.103516E-05L0 -6.103516E-05z" /></clipPath><clipPath id="4"><path id="" clip-rule="evenodd" d="M0 539.9998L720 539.9998L720 539.9998L720 -0.0001831055L720 -0.0001831055L0 -0.0001831055z" /></clipPath><clipPath id="5"><path id="" clip-rule="evenodd" d="M1.0729E-05 540L720 540L720 540L720 0L720 0L1.0729E-05 0z" /></clipPath><clipPath id="6"><path id="" clip-rule="evenodd" d="M0 539.9999L720 539.9999L720 539.9999L720 -6.103516E-05L720 -6.103516E-05L0 -6.103516E-05z" /></clipPath><clipPath id="7"><path id="" clip-rule="evenodd" d="M0 539.9999L720 539.9999L720 539.9999L720 -6.103516E-05L720 -6.103516E-05L0 -6.103516E-05z" /></clipPath><clipPath id="8"><path id="" clip-rule="evenodd" d="M68.4 399.4C 68.4 404.75 72.734 409.08 78.08 409.08L78.08 409.08L512.32 409.08C 517.67 409.08 522 404.75 522 399.4L522 399.4L522 360.68C 522 355.33 517.67 351 512.32 351L512.32 351L78.08 351C 72.734 351 68.4 355.33 68.4 360.68z" /></clipPath><linearGradient gradientUnits="userSpaceOnUse" transform="matrix(1 0 0 1 0 0)" id="1456" x1="295.2" y1="292.92" x2="295.2" y2="409.08"><stop stop-color="#9BC1FF" offset="0%" /><stop stop-color="#9BC1FF" offset="1%" /><stop stop-color="#9AC0FF" offset="2%" /><stop stop-color="#9AC0FE" offset="3%" /><stop stop-color="#9AC0FE" offset="4%" /><stop stop-color="#99BFFE" offset="5%" /><stop stop-color="#98BFFD" offset="6%" /><stop stop-color="#98BEFC" offset="7%" /><stop stop-color="#97BDFC" offset="8%" /><stop stop-color="#96BDFB" offset="9%" /><stop stop-color="#95BCFB" offset="10%" /><stop stop-color="#94BBFA" offset="11%" /><stop stop-color="#93BAF9" offset="12%" /><stop stop-color="#91B9F8" offset="13%" /><stop stop-color="#90B7F7" offset="14%" /><stop stop-color="#8EB6F6" offset="15%" /><stop stop-color="#8DB5F5" offset="16%" /><stop stop-color="#8BB3F4" offset="17%" /><stop stop-color="#89B2F2" offset="18%" /><stop stop-color="#87B0F1" offset="19%" /><stop stop-color="#85AEEF" offset="20%" /><stop stop-color="#82ADEE" offset="21%" /><stop stop-color="#80ABED" offset="22%" /><stop stop-color="#7DA8EB" offset="23%" /><stop stop-color="#7AA6E9" offset="24%" /><stop stop-color="#78A4E8" offset="25%" /><stop stop-color="#75A2E6" offset="26%" /><stop stop-color="#72A0E4" offset="27%" /><stop stop-color="#6F9EE3" offset="28%" /><stop stop-color="#6C9CE1" offset="29%" /><stop stop-color="#6A9ADF" offset="30%" /><stop stop-color="#6798DE" offset="31%" /><stop stop-color="#6395DC" offset="32%" /><stop stop-color="#6093DB" offset="33%" /><stop stop-color="#5D91D9" offset="34%" /><stop stop-color="#5B90D8" offset="35%" /><stop stop-color="#588ED7" offset="36%" /><stop stop-color="#558CD5" offset="37%" /><stop stop-color="#538BD4" offset="38%" /><stop stop-color="#5189D3" offset="39%" /><stop stop-color="#4E88D3" offset="40%" /><stop stop-color="#4B86D2" offset="41%" /><stop stop-color="#4985D1" offset="42%" /><stop stop-color="#4884D0" offset="43%" /><stop stop-color="#4683CF" offset="44%" /><stop stop-color="#4583CF" offset="45%" /><stop stop-color="#4382CE" offset="46%" /><stop stop-color="#4281CE" offset="47%" /><stop stop-color="#4181CE" offset="48%" /><stop stop-color="#4080CD" offset="49%" /><stop stop-color="#3F80CD" offset="50%" /><stop stop-color="#4080CD" offset="51%" /><stop stop-color="#4181CE" offset="52%" /><stop stop-color="#4281CE" offset="53%" /><stop stop-color="#4382CE" offset="54%" /><stop stop-color="#4583CF" offset="55%" /><stop stop-color="#4683CF" offset="56%" /><stop stop-color="#4884D0" offset="57%" /><stop stop-color="#4985D1" offset="58%" /><stop stop-color="#4B86D2" offset="59%" /><stop stop-color="#4E88D3" offset="60%" /><stop stop-color="#5189D3" offset="61%" /><stop stop-color="#538BD4" offset="62%" /><stop stop-color="#558CD5" offset="63%" /><stop stop-color="#588ED7" offset="64%" /><stop stop-color="#5B90D8" offset="65%" /><stop stop-color="#5D91D9" offset="66%" /><stop stop-color="#6093DB" offset="67%" /><stop stop-color="#6395DC" offset="68%" /><stop stop-color="#6798DE" offset="69%" /><stop stop-color="#6A9ADF" offset="70%" /><stop stop-color="#6C9CE1" offset="71%" /><stop stop-color="#6F9EE3" offset="72%" /><stop stop-color="#72A0E4" offset="73%" /><stop stop-color="#75A2E6" offset="74%" /><stop stop-color="#78A4E8" offset="75%" /><stop stop-color="#7AA6E9" offset="76%" /><stop stop-color="#7DA8EB" offset="77%" /><stop stop-color="#80ABED" offset="78%" /><stop stop-color="#82ADEE" offset="79%" /><stop stop-color="#85AEEF" offset="80%" /><stop stop-color="#87B0F1" offset="81%" /><stop stop-color="#89B2F2" offset="82%" /><stop stop-color="#8BB3F4" offset="83%" /><stop stop-color="#8DB5F5" offset="84%" /><stop stop-color="#8EB6F6" offset="85%" /><stop stop-color="#90B7F7" offset="86%" /><stop stop-color="#91B9F8" offset="87%" /><stop stop-color="#93BAF9" offset="88%" /><stop stop-color="#94BBFA" offset="89%" /><stop stop-color="#95BCFB" offset="90%" /><stop stop-color="#96BDFB" offset="91%" /><stop stop-color="#97BDFC" offset="92%" /><stop stop-color="#98BEFC" offset="93%" /><stop stop-color="#98BFFD" offset="94%" /><stop stop-color="#99BFFE" offset="95%" /><stop stop-color="#9AC0FE" offset="96%" /><stop stop-color="#9AC0FE" offset="97%" /><stop stop-color="#9AC0FF" offset="98%" /><stop stop-color="#9BC1FF" offset="99%" /><stop stop-color="#9BC1FF" offset="100%" /></linearGradient><clipPath id="9"><path id="" clip-rule="evenodd" d="M68.4 399.4C 68.4 404.75 72.734 409.08 78.08 409.08L78.08 409.08L512.32 409.08C 517.67 409.08 522 404.75 522 399.4L522 399.4L522 360.68C 522 355.33 517.67 351 512.32 351L512.32 351L78.08 351C 72.734 351 68.4 355.33 68.4 360.68z" /></clipPath><clipPath id="10"><path id="" clip-rule="evenodd" d="M68.4 399.4C 68.4 404.75 72.734 409.08 78.08 409.08L78.08 409.08L512.32 409.08C 517.67 409.08 522 404.75 522 399.4L522 399.4L522 360.68C 522 355.33 517.67 351 512.32 351L512.32 351L78.08 351C 72.734 351 68.4 355.33 68.4 360.68z" /></clipPath><clipPath id="11"><path id="" clip-rule="evenodd" d="M1.0729E-05 540L720 540L720 540L720 0L720 0L1.0729E-05 0z" /></clipPath><clipPath id="12"><path id="" clip-rule="evenodd" d="M0 539.9999L720 539.9999L720 539.9999L720 -6.103516E-05L720 -6.103516E-05L0 -6.103516E-05z" /></clipPath><clipPath id="13"><path id="" clip-rule="evenodd" d="M0 539.9999L720 539.9999L720 539.9999L720 -6.103516E-05L720 -6.103516E-05L0 -6.103516E-05z" /></clipPath><clipPath id="14"><path id="" clip-rule="evenodd" d="M68.4 310.12C 68.4 315.47 72.734 319.8 78.08 319.8L78.08 319.8L512.32 319.8C 517.67 319.8 522 315.47 522 310.12L522 310.12L522 271.4C 522 266.05 517.67 261.72 512.32 261.72L512.32 261.72L78.08 261.72C 72.734 261.72 68.4 266.05 68.4 271.4z" /></clipPath><linearGradient gradientUnits="userSpaceOnUse" transform="matrix(1 0 0 1 0 0)" id="7190" x1="295.2" y1="203.64" x2="295.2" y2="319.8"><stop stop-color="#9BC1FF" offset="0%" /><stop stop-color="#9BC1FF" offset="1%" /><stop stop-color="#9AC0FF" offset="2%" /><stop stop-color="#9AC0FE" offset="3%" /><stop stop-color="#9AC0FE" offset="4%" /><stop stop-color="#99BFFE" offset="5%" /><stop stop-color="#98BFFD" offset="6%" /><stop stop-color="#98BEFC" offset="7%" /><stop stop-color="#97BDFC" offset="8%" /><stop stop-color="#96BDFB" offset="9%" /><stop stop-color="#95BCFB" offset="10%" /><stop stop-color="#94BBFA" offset="11%" /><stop stop-color="#93BAF9" offset="12%" /><stop stop-color="#91B9F8" offset="13%" /><stop stop-color="#90B7F7" offset="14%" /><stop stop-color="#8EB6F6" offset="15%" /><stop stop-color="#8DB5F5" offset="16%" /><stop stop-color="#8BB3F4" offset="17%" /><stop stop-color="#89B2F2" offset="18%" /><stop stop-color="#87B0F1" offset="19%" /><stop stop-color="#85AEEF" offset="20%" /><stop stop-color="#82ADEE" offset="21%" /><stop stop-color="#80ABED" offset="22%" /><stop stop-color="#7DA8EB" offset="23%" /><stop stop-color="#7AA6E9" offset="24%" /><stop stop-color="#78A4E8" offset="25%" /><stop stop-color="#75A2E6" offset="26%" /><stop stop-color="#72A0E4" offset="27%" /><stop stop-color="#6F9EE3" offset="28%" /><stop stop-color="#6C9CE1" offset="29%" /><stop stop-color="#6A9ADF" offset="30%" /><stop stop-color="#6798DE" offset="31%" /><stop stop-color="#6395DC" offset="32%" /><stop stop-color="#6093DB" offset="33%" /><stop stop-color="#5D91D9" offset="34%" /><stop stop-color="#5B90D8" offset="35%" /><stop stop-color="#588ED7" offset="36%" /><stop stop-color="#558CD5" offset="37%" /><stop stop-color="#538BD4" offset="38%" /><stop stop-color="#5189D3" offset="39%" /><stop stop-color="#4E88D3" offset="40%" /><stop stop-color="#4B86D2" offset="41%" /><stop stop-color="#4985D1" offset="42%" /><stop stop-color="#4884D0" offset="43%" /><stop stop-color="#4683CF" offset="44%" /><stop stop-color="#4583CF" offset="45%" /><stop stop-color="#4382CE" offset="46%" /><stop stop-color="#4281CE" offset="47%" /><stop stop-color="#4181CE" offset="48%" /><stop stop-color="#4080CD" offset="49%" /><stop stop-color="#3F80CD" offset="50%" /><stop stop-color="#4080CD" offset="51%" /><stop stop-color="#4181CE" offset="52%" /><stop stop-color="#4281CE" offset="53%" /><stop stop-color="#4382CE" offset="54%" /><stop stop-color="#4583CF" offset="55%" /><stop stop-color="#4683CF" offset="56%" /><stop stop-color="#4884D0" offset="57%" /><stop stop-color="#4985D1" offset="58%" /><stop stop-color="#4B86D2" offset="59%" /><stop stop-color="#4E88D3" offset="60%" /><stop stop-color="#5189D3" offset="61%" /><stop stop-color="#538BD4" offset="62%" /><stop stop-color="#558CD5" offset="63%" /><stop stop-color="#588ED7" offset="64%" /><stop stop-color="#5B90D8" offset="65%" /><stop stop-color="#5D91D9" offset="66%" /><stop stop-color="#6093DB" offset="67%" /><stop stop-color="#6395DC" offset="68%" /><stop stop-color="#6798DE" offset="69%" /><stop stop-color="#6A9ADF" offset="70%" /><stop stop-color="#6C9CE1" offset="71%" /><stop stop-color="#6F9EE3" offset="72%" /><stop stop-color="#72A0E4" offset="73%" /><stop stop-color="#75A2E6" offset="74%" /><stop stop-color="#78A4E8" offset="75%" /><stop stop-color="#7AA6E9" offset="76%" /><stop stop-color="#7DA8EB" offset="77%" /><stop stop-color="#80ABED" offset="78%" /><stop stop-color="#82ADEE" offset="79%" /><stop stop-color="#85AEEF" offset="80%" /><stop stop-color="#87B0F1" offset="81%" /><stop stop-color="#89B2F2" offset="82%" /><stop stop-color="#8BB3F4" offset="83%" /><stop stop-color="#8DB5F5" offset="84%" /><stop stop-color="#8EB6F6" offset="85%" /><stop stop-color="#90B7F7" offset="86%" /><stop stop-color="#91B9F8" offset="87%" /><stop stop-color="#93BAF9" offset="88%" /><stop stop-color="#94BBFA" offset="89%" /><stop stop-color="#95BCFB" offset="90%" /><stop stop-color="#96BDFB" offset="91%" /><stop stop-color="#97BDFC" offset="92%" /><stop stop-color="#98BEFC" offset="93%" /><stop stop-color="#98BFFD" offset="94%" /><stop stop-color="#99BFFE" offset="95%" /><stop stop-color="#9AC0FE" offset="96%" /><stop stop-color="#9AC0FE" offset="97%" /><stop stop-color="#9AC0FF" offset="98%" /><stop stop-color="#9BC1FF" offset="99%" /><stop stop-color="#9BC1FF" offset="100%" /></linearGradient><clipPath id="15"><path id="" clip-rule="evenodd" d="M68.4 310.12C 68.4 315.47 72.734 319.8 78.08 319.8L78.08 319.8L512.32 319.8C 517.67 319.8 522 315.47 522 310.12L522 310.12L522 271.4C 522 266.05 517.67 261.72 512.32 261.72L512.32 261.72L78.08 261.72C 72.734 261.72 68.4 266.05 68.4 271.4z" /></clipPath><clipPath id="16"><path id="" clip-rule="evenodd" d="M68.4 310.12C 68.4 315.47 72.734 319.8 78.08 319.8L78.08 319.8L512.32 319.8C 517.67 319.8 522 315.47 522 310.12L522 310.12L522 271.4C 522 266.05 517.67 261.72 512.32 261.72L512.32 261.72L78.08 261.72C 72.734 261.72 68.4 266.05 68.4 271.4z" /></clipPath><clipPath id="17"><path id="" clip-rule="evenodd" d="M1.0729E-05 540L720 540L720 540L720 0L720 0L1.0729E-05 0z" /></clipPath><clipPath id="18"><path id="" clip-rule="evenodd" d="M0 539.9999L720 539.9999L720 539.9999L720 -6.103516E-05L720 -6.103516E-05L0 -6.103516E-05z" /></clipPath><clipPath id="19"><path id="" clip-rule="evenodd" d="M0 539.9999L720 539.9999L720 539.9999L720 -6.103516E-05L720 -6.103516E-05L0 -6.103516E-05z" /></clipPath><clipPath id="20"><path id="" clip-rule="evenodd" d="M68.4 220.84C 68.4 226.19 72.734 230.52 78.08 230.52L78.08 230.52L512.32 230.52C 517.67 230.52 522 226.19 522 220.84L522 220.84L522 182.12C 522 176.77 517.67 172.44 512.32 172.44L512.32 172.44L78.08 172.44C 72.734 172.44 68.4 176.77 68.4 182.12z" /></clipPath><linearGradient gradientUnits="userSpaceOnUse" transform="matrix(1 0 0 1 0 0)" id="12953" x1="295.2" y1="114.36" x2="295.2" y2="230.52"><stop stop-color="#9BC1FF" offset="0%" /><stop stop-color="#9BC1FF" offset="1%" /><stop stop-color="#9AC0FF" offset="2%" /><stop stop-color="#9AC0FE" offset="3%" /><stop stop-color="#9AC0FE" offset="4%" /><stop stop-color="#99BFFE" offset="5%" /><stop stop-color="#98BFFD" offset="6%" /><stop stop-color="#98BEFC" offset="7%" /><stop stop-color="#97BDFC" offset="8%" /><stop stop-color="#96BDFB" offset="9%" /><stop stop-color="#95BCFB" offset="10%" /><stop stop-color="#94BBFA" offset="11%" /><stop stop-color="#93BAF9" offset="12%" /><stop stop-color="#91B9F8" offset="13%" /><stop stop-color="#90B7F7" offset="14%" /><stop stop-color="#8EB6F6" offset="15%" /><stop stop-color="#8DB5F5" offset="16%" /><stop stop-color="#8BB3F4" offset="17%" /><stop stop-color="#89B2F2" offset="18%" /><stop stop-color="#87B0F1" offset="19%" /><stop stop-color="#85AEEF" offset="20%" /><stop stop-color="#82ADEE" offset="21%" /><stop stop-color="#80ABED" offset="22%" /><stop stop-color="#7DA8EB" offset="23%" /><stop stop-color="#7AA6E9" offset="24%" /><stop stop-color="#78A4E8" offset="25%" /><stop stop-color="#75A2E6" offset="26%" /><stop stop-color="#72A0E4" offset="27%" /><stop stop-color="#6F9EE3" offset="28%" /><stop stop-color="#6C9CE1" offset="29%" /><stop stop-color="#6A9ADF" offset="30%" /><stop stop-color="#6798DE" offset="31%" /><stop stop-color="#6395DC" offset="32%" /><stop stop-color="#6093DB" offset="33%" /><stop stop-color="#5D91D9" offset="34%" /><stop stop-color="#5B90D8" offset="35%" /><stop stop-color="#588ED7" offset="36%" /><stop stop-color="#558CD5" offset="37%" /><stop stop-color="#538BD4" offset="38%" /><stop stop-color="#5189D3" offset="39%" /><stop stop-color="#4E88D3" offset="40%" /><stop stop-color="#4B86D2" offset="41%" /><stop stop-color="#4985D1" offset="42%" /><stop stop-color="#4884D0" offset="43%" /><stop stop-color="#4683CF" offset="44%" /><stop stop-color="#4583CF" offset="45%" /><stop stop-color="#4382CE" offset="46%" /><stop stop-color="#4281CE" offset="47%" /><stop stop-color="#4181CE" offset="48%" /><stop stop-color="#4080CD" offset="49%" /><stop stop-color="#3F80CD" offset="50%" /><stop stop-color="#4080CD" offset="51%" /><stop stop-color="#4181CE" offset="52%" /><stop stop-color="#4281CE" offset="53%" /><stop stop-color="#4382CE" offset="54%" /><stop stop-color="#4583CF" offset="55%" /><stop stop-color="#4683CF" offset="56%" /><stop stop-color="#4884D0" offset="57%" /><stop stop-color="#4985D1" offset="58%" /><stop stop-color="#4B86D2" offset="59%" /><stop stop-color="#4E88D3" offset="60%" /><stop stop-color="#5189D3" offset="61%" /><stop stop-color="#538BD4" offset="62%" /><stop stop-color="#558CD5" offset="63%" /><stop stop-color="#588ED7" offset="64%" /><stop stop-color="#5B90D8" offset="65%" /><stop stop-color="#5D91D9" offset="66%" /><stop stop-color="#6093DB" offset="67%" /><stop stop-color="#6395DC" offset="68%" /><stop stop-color="#6798DE" offset="69%" /><stop stop-color="#6A9ADF" offset="70%" /><stop stop-color="#6C9CE1" offset="71%" /><stop stop-color="#6F9EE3" offset="72%" /><stop stop-color="#72A0E4" offset="73%" /><stop stop-color="#75A2E6" offset="74%" /><stop stop-color="#78A4E8" offset="75%" /><stop stop-color="#7AA6E9" offset="76%" /><stop stop-color="#7DA8EB" offset="77%" /><stop stop-color="#80ABED" offset="78%" /><stop stop-color="#82ADEE" offset="79%" /><stop stop-color="#85AEEF" offset="80%" /><stop stop-color="#87B0F1" offset="81%" /><stop stop-color="#89B2F2" offset="82%" /><stop stop-color="#8BB3F4" offset="83%" /><stop stop-color="#8DB5F5" offset="84%" /><stop stop-color="#8EB6F6" offset="85%" /><stop stop-color="#90B7F7" offset="86%" /><stop stop-color="#91B9F8" offset="87%" /><stop stop-color="#93BAF9" offset="88%" /><stop stop-color="#94BBFA" offset="89%" /><stop stop-color="#95BCFB" offset="90%" /><stop stop-color="#96BDFB" offset="91%" /><stop stop-color="#97BDFC" offset="92%" /><stop stop-color="#98BEFC" offset="93%" /><stop stop-color="#98BFFD" offset="94%" /><stop stop-color="#99BFFE" offset="95%" /><stop stop-color="#9AC0FE" offset="96%" /><stop stop-color="#9AC0FE" offset="97%" /><stop stop-color="#9AC0FF" offset="98%" /><stop stop-color="#9BC1FF" offset="99%" /><stop stop-color="#9BC1FF" offset="100%" /></linearGradient><clipPath id="21"><path id="" clip-rule="evenodd" d="M68.4 220.84C 68.4 226.19 72.734 230.52 78.08 230.52L78.08 230.52L512.32 230.52C 517.67 230.52 522 226.19 522 220.84L522 220.84L522 182.12C 522 176.77 517.67 172.44 512.32 172.44L512.32 172.44L78.08 172.44C 72.734 172.44 68.4 176.77 68.4 182.12z" /></clipPath><clipPath id="22"><path id="" clip-rule="evenodd" d="M68.4 220.84C 68.4 226.19 72.734 230.52 78.08 230.52L78.08 230.52L512.32 230.52C 517.67 230.52 522 226.19 522 220.84L522 220.84L522 182.12C 522 176.77 517.67 172.44 512.32 172.44L512.32 172.44L78.08 172.44C 72.734 172.44 68.4 176.77 68.4 182.12z" /></clipPath><clipPath id="23"><path id="" clip-rule="evenodd" d="M1.0729E-05 540L720 540L720 540L720 0L720 0L1.0729E-05 0z" /></clipPath><clipPath id="24"><path id="" clip-rule="evenodd" d="M1.0729E-05 540L720 540L720 540L720 0L720 0L1.0729E-05 0z" /></clipPath><clipPath id="25"><path id="" clip-rule="evenodd" d="M1.0729E-05 540L720 540L720 540L720 0L720 0L1.0729E-05 0z" /></clipPath><clipPath id="26"><path id="" clip-rule="evenodd" d="M0 539.9999L720 539.9999L720 539.9999L720 -6.103516E-05L720 -6.103516E-05L0 -6.103516E-05z" /></clipPath><clipPath id="27"><path id="" clip-rule="evenodd" d="M0 539.9999L720 539.9999L720 539.9999L720 -6.103516E-05L720 -6.103516E-05L0 -6.103516E-05z" /></clipPath><clipPath id="28"><path id="" clip-rule="evenodd" d="M68.4 131.54C 68.4 136.9 72.743 141.24 78.1 141.24L78.1 141.24L512.3 141.24C 517.66 141.24 522 136.9 522 131.54L522 131.54L522 92.74C 522 87.383 517.66 83.04 512.3 83.04L512.3 83.04L78.1 83.04C 72.743 83.04 68.4 87.383 68.4 92.74z" /></clipPath><linearGradient gradientUnits="userSpaceOnUse" transform="matrix(1 0 0 1 0 0)" id="19001" x1="295.2" y1="83.04" x2="295.2" y2="141.24"><stop stop-color="#3F80CD" offset="0%" /><stop stop-color="#3F80CD" offset="1%" /><stop stop-color="#4080CD" offset="2%" /><stop stop-color="#4181CD" offset="3%" /><stop stop-color="#4181CE" offset="4%" /><stop stop-color="#4181CE" offset="5%" /><stop stop-color="#4281CE" offset="6%" /><stop stop-color="#4282CE" offset="7%" /><stop stop-color="#4382CE" offset="8%" /><stop stop-color="#4482CF" offset="9%" /><stop stop-color="#4583CF" offset="10%" /><stop stop-color="#4583CF" offset="11%" /><stop stop-color="#4684CF" offset="12%" /><stop stop-color="#4784D0" offset="13%" /><stop stop-color="#4885D0" offset="14%" /><stop stop-color="#4985D0" offset="15%" /><stop stop-color="#4A86D1" offset="16%" /><stop stop-color="#4B86D1" offset="17%" /><stop stop-color="#4C87D2" offset="18%" /><stop stop-color="#4D87D2" offset="19%" /><stop stop-color="#4E88D3" offset="20%" /><stop stop-color="#5089D3" offset="21%" /><stop stop-color="#5189D3" offset="22%" /><stop stop-color="#528AD4" offset="23%" /><stop stop-color="#538BD4" offset="24%" /><stop stop-color="#548CD5" offset="25%" /><stop stop-color="#558CD5" offset="26%" /><stop stop-color="#578DD6" offset="27%" /><stop stop-color="#588ED7" offset="28%" /><stop stop-color="#598FD7" offset="29%" /><stop stop-color="#5B90D8" offset="30%" /><stop stop-color="#5C91D9" offset="31%" /><stop stop-color="#5E92DA" offset="32%" /><stop stop-color="#5F92DA" offset="33%" /><stop stop-color="#6194DB" offset="34%" /><stop stop-color="#6294DB" offset="35%" /><stop stop-color="#6395DC" offset="36%" /><stop stop-color="#6596DD" offset="37%" /><stop stop-color="#6798DE" offset="38%" /><stop stop-color="#6898DE" offset="39%" /><stop stop-color="#6A9ADF" offset="40%" /><stop stop-color="#6B9BE0" offset="41%" /><stop stop-color="#6C9CE1" offset="42%" /><stop stop-color="#6E9DE2" offset="43%" /><stop stop-color="#6F9EE3" offset="44%" /><stop stop-color="#719FE4" offset="45%" /><stop stop-color="#72A0E4" offset="46%" /><stop stop-color="#74A1E5" offset="47%" /><stop stop-color="#75A2E6" offset="48%" /><stop stop-color="#77A3E7" offset="49%" /><stop stop-color="#78A4E8" offset="50%" /><stop stop-color="#79A5E8" offset="51%" /><stop stop-color="#7BA7E9" offset="52%" /><stop stop-color="#7CA8EA" offset="53%" /><stop stop-color="#7DA9EB" offset="54%" /><stop stop-color="#7FA9EC" offset="55%" /><stop stop-color="#80ABED" offset="56%" /><stop stop-color="#81ABED" offset="57%" /><stop stop-color="#82ADEE" offset="58%" /><stop stop-color="#83ADEF" offset="59%" /><stop stop-color="#85AEEF" offset="60%" /><stop stop-color="#86AFF0" offset="61%" /><stop stop-color="#87B0F1" offset="62%" /><stop stop-color="#88B1F2" offset="63%" /><stop stop-color="#89B2F2" offset="64%" /><stop stop-color="#8AB3F3" offset="65%" /><stop stop-color="#8BB3F4" offset="66%" /><stop stop-color="#8CB4F4" offset="67%" /><stop stop-color="#8DB5F5" offset="68%" /><stop stop-color="#8EB6F5" offset="69%" /><stop stop-color="#8EB6F6" offset="70%" /><stop stop-color="#8FB7F7" offset="71%" /><stop stop-color="#90B8F7" offset="72%" /><stop stop-color="#91B8F8" offset="73%" /><stop stop-color="#91B9F8" offset="74%" /><stop stop-color="#92B9F9" offset="75%" /><stop stop-color="#93BAF9" offset="76%" /><stop stop-color="#93BAF9" offset="77%" /><stop stop-color="#94BBFA" offset="78%" /><stop stop-color="#94BBFA" offset="79%" /><stop stop-color="#95BCFB" offset="80%" /><stop stop-color="#95BCFB" offset="81%" /><stop stop-color="#96BDFB" offset="82%" /><stop stop-color="#97BDFC" offset="83%" /><stop stop-color="#97BDFC" offset="84%" /><stop stop-color="#97BEFC" offset="85%" /><stop stop-color="#98BEFC" offset="86%" /><stop stop-color="#98BEFD" offset="87%" /><stop stop-color="#98BFFD" offset="88%" /><stop stop-color="#99BFFD" offset="89%" /><stop stop-color="#99BFFE" offset="90%" /><stop stop-color="#99C0FE" offset="91%" /><stop stop-color="#9AC0FE" offset="92%" /><stop stop-color="#9AC0FE" offset="93%" /><stop stop-color="#9AC0FE" offset="94%" /><stop stop-color="#9AC0FE" offset="95%" /><stop stop-color="#9AC0FF" offset="96%" /><stop stop-color="#9BC1FF" offset="97%" /><stop stop-color="#9BC1FF" offset="98%" /><stop stop-color="#9BC1FF" offset="99%" /><stop stop-color="#9BC1FF" offset="100%" /></linearGradient><clipPath id="29"><path id="" clip-rule="evenodd" d="M68.4 131.54C 68.4 136.9 72.743 141.24 78.1 141.24L78.1 141.24L512.3 141.24C 517.66 141.24 522 136.9 522 131.54L522 131.54L522 92.74C 522 87.383 517.66 83.04 512.3 83.04L512.3 83.04L78.1 83.04C 72.743 83.04 68.4 87.383 68.4 92.74z" /></clipPath><clipPath id="30"><path id="" clip-rule="evenodd" d="M68.4 131.54C 68.4 136.9 72.743 141.24 78.1 141.24L78.1 141.24L512.3 141.24C 517.66 141.24 522 136.9 522 131.54L522 131.54L522 92.74C 522 87.383 517.66 83.04 512.3 83.04L512.3 83.04L78.1 83.04C 72.743 83.04 68.4 87.383 68.4 92.74z" /></clipPath><clipPath id="31"><path id="" clip-rule="evenodd" d="M1.0729E-05 540L720 540L720 540L720 0L720 0L1.0729E-05 0z" /></clipPath></defs><g transform="matrix(1.333333 0 0 1.333333 0 0)"><g clip-path="url(#1)"><g clip-path="url(#2)"><path id="1" transform="matrix(1 0 0 -1 0 540)" d="M0 6.1035E-05L720 6.1035E-05L720 6.1035E-05L720 540.0001L720 540.0001L0 540.0001z" stroke="none" fill="#FFFFFF" fill-rule="evenodd" /></g><g clip-path="url(#3)"><g transform="matrix(0.5623125 0 0 0.56225 0.12 -6.103516E-05)"><g transform="matrix(1 0 0 1 0 0)"><image x="0" y="0" xlink:href="img_01.png" width="1280" height="960" /></g></g></g><g clip-path="url(#4)"><g transform="matrix(0.5623125 0 0 0.56225 0.12 1.320007)"><g transform="matrix(1 0 0 1 0 0)"><image x="0" y="0" xlink:href="img_03.png" width="1280" height="960" /></g></g></g><g clip-path="url(#5)"></g><path id="6" transform="matrix(1 0 0 -1 0 540)" d="M36 330.36L684 330.36L684 330.36L684 380.04L684 380.04L36 380.04z" stroke="none" fill="#FFFFFF" fill-rule="evenodd" fill-opacity="0.8980392" /><path id="7" transform="matrix(1 0 0 -1 0 540)" d="M36 330.36L684 330.36L684 330.36L684 380.04L684 380.04L36 380.04z" stroke="#4F81BD" stroke-width="0.72" fill="none" /><g clip-path="url(#6)"><g transform="matrix(0.7203756 0 0 0.72 65.04 129.36)"><g transform="matrix(1 0 0 1 0 0)"><image x="0" y="0" xlink:href="img_08.png" width="639" height="90" /></g></g></g><g clip-path="url(#7)"><g transform="matrix(0.7206557 0 0 0.72 68.88 132.48)"><g transform="matrix(1 0 0 1 0 0)"><image x="0" y="0" xlink:href="img_09.png" width="366" height="88" /></g></g></g><path id="10" transform="matrix(1 0 0 -1 0 540)" clip-path="url(#8)" d="M0 292.92L720 292.92L720 292.92L720 409.08L720 409.08L0 409.08" stroke="none" fill="url(#1456)" /><path id="11" transform="matrix(1 0 0 -1 0 540)" clip-path="url(#9)" d="M0 292.92L720 292.92L720 292.92L720 0L720 0L0 0" stroke="none" fill="#9BC1FF" fill-rule="evenodd" /><path id="12" transform="matrix(1 0 0 -1 0 540)" clip-path="url(#10)" d="M0 409.08L720 409.08L720 409.08L720 540L720 540L0 540" stroke="none" fill="#9BC1FF" fill-rule="evenodd" /><path id="13" transform="matrix(1 0 0 -1 0 540)" d="M68.4 399.4C 68.4 404.75 72.734 409.08 78.08 409.08L78.08 409.08L512.32 409.08C 517.67 409.08 522 404.75 522 399.4L522 399.4L522 360.68C 522 355.33 517.67 351 512.32 351L512.32 351L78.08 351C 72.734 351 68.4 355.33 68.4 360.68z" stroke="none" fill="none" /><g clip-path="url(#11)"></g><path id="23" transform="matrix(1 0 0 -1 0 540)" d="M36 241.08L684 241.08L684 241.08L684 290.76L684 290.76L36 290.76z" stroke="none" fill="#FFFFFF" fill-rule="evenodd" fill-opacity="0.8980392" /><path id="24" transform="matrix(1 0 0 -1 0 540)" d="M36 241.08L684 241.08L684 241.08L684 290.76L684 290.76L36 290.76z" stroke="#4F81BD" stroke-width="0.72" fill="none" /><g clip-path="url(#12)"><g transform="matrix(0.7203756 0 0 0.72 65.04 218.64)"><g transform="matrix(1 0 0 1 0 0)"><image x="0" y="0" xlink:href="img_08.png" width="639" height="90" /></g></g></g><g clip-path="url(#13)"><g transform="matrix(0.7192771 0 0 0.72 68.88 221.76)"><g transform="matrix(1 0 0 1 0 0)"><image x="0" y="0" xlink:href="img_10.png" width="332" height="88" /></g></g></g><path id="27" transform="matrix(1 0 0 -1 0 540)" clip-path="url(#14)" d="M0 203.64L720 203.64L720 203.64L720 319.8L720 319.8L0 319.8" stroke="none" fill="url(#7190)" /><path id="28" transform="matrix(1 0 0 -1 0 540)" clip-path="url(#15)" d="M0 203.64L720 203.64L720 203.64L720 0L720 0L0 0" stroke="none" fill="#9BC1FF" fill-rule="evenodd" /><path id="29" transform="matrix(1 0 0 -1 0 540)" clip-path="url(#16)" d="M0 319.8L720 319.8L720 319.8L720 540L720 540L0 540" stroke="none" fill="#9BC1FF" fill-rule="evenodd" /><path id="30" transform="matrix(1 0 0 -1 0 540)" d="M68.4 310.12C 68.4 315.47 72.734 319.8 78.08 319.8L78.08 319.8L512.32 319.8C 517.67 319.8 522 315.47 522 310.12L522 310.12L522 271.4C 522 266.05 517.67 261.72 512.32 261.72L512.32 261.72L78.08 261.72C 72.734 261.72 68.4 266.05 68.4 271.4z" stroke="none" fill="none" /><g clip-path="url(#17)"></g><path id="39" transform="matrix(1 0 0 -1 0 540)" d="M36 151.8L684 151.8L684 151.8L684 201.48L684 201.48L36 201.48z" stroke="none" fill="#FFFFFF" fill-rule="evenodd" fill-opacity="0.8980392" /><path id="40" transform="matrix(1 0 0 -1 0 540)" d="M36 151.8L684 151.8L684 151.8L684 201.48L684 201.48L36 201.48z" stroke="#4F81BD" stroke-width="0.72" fill="none" /><g clip-path="url(#18)"><g transform="matrix(0.7203756 0 0 0.72 65.04 307.92)"><g transform="matrix(1 0 0 1 0 0)"><image x="0" y="0" xlink:href="img_08.png" width="639" height="90" /></g></g></g><g clip-path="url(#19)"><g transform="matrix(0.7204753 0 0 0.7213637 68.88 311.04)"><g transform="matrix(1 0 0 1 0 0)"><image x="0" y="0" xlink:href="img_11.png" width="505" height="88" /></g></g></g><path id="43" transform="matrix(1 0 0 -1 0 540)" clip-path="url(#20)" d="M0 114.36L720 114.36L720 114.36L720 230.52L720 230.52L0 230.52" stroke="none" fill="url(#12953)" /><path id="44" transform="matrix(1 0 0 -1 0 540)" clip-path="url(#21)" d="M0 114.36L720 114.36L720 114.36L720 0L720 0L0 0" stroke="none" fill="#9BC1FF" fill-rule="evenodd" /><path id="45" transform="matrix(1 0 0 -1 0 540)" clip-path="url(#22)" d="M0 230.52L720 230.52L720 230.52L720 540L720 540L0 540" stroke="none" fill="#9BC1FF" fill-rule="evenodd" /><path id="46" transform="matrix(1 0 0 -1 0 540)" d="M68.4 220.84C 68.4 226.19 72.734 230.52 78.08 230.52L78.08 230.52L512.32 230.52C 517.67 230.52 522 226.19 522 220.84L522 220.84L522 182.12C 522 176.77 517.67 172.44 512.32 172.44L512.32 172.44L78.08 172.44C 72.734 172.44 68.4 176.77 68.4 182.12z" stroke="none" fill="none" /><g clip-path="url(#23)"></g><g clip-path="url(#24)"></g><g clip-path="url(#25)"></g><path id="61" transform="matrix(1 0 0 -1 0 540)" d="M36 62.52L684 62.52L684 62.52L684 112.2L684 112.2L36 112.2z" stroke="none" fill="#FFFFFF" fill-rule="evenodd" fill-opacity="0.8980392" /><path id="62" transform="matrix(1 0 0 -1 0 540)" d="M36 62.52L684 62.52L684 62.52L684 112.2L684 112.2L36 112.2z" stroke="#4F81BD" stroke-width="0.72" fill="none" /><g clip-path="url(#26)"><g transform="matrix(0.7203756 0 0 0.7213333 65.04 397.2)"><g transform="matrix(1 0 0 1 0 0)"><image x="0" y="0" xlink:href="img_12.png" width="639" height="90" /></g></g></g><g clip-path="url(#27)"><g transform="matrix(0.7180645 0 0 0.7213637 68.88 400.32)"><g transform="matrix(1 0 0 1 0 0)"><image x="0" y="0" xlink:href="img_13.png" width="124" height="88" /></g></g></g><path id="65" transform="matrix(1 0 0 -1 0 540)" clip-path="url(#28)" d="M0 83.04L720 83.04L720 83.04L720 141.24L720 141.24L0 141.24" stroke="none" fill="url(#19001)" /><path id="66" transform="matrix(1 0 0 -1 0 540)" clip-path="url(#29)" d="M0 83.04L720 83.04L720 83.04L720 0L720 0L0 0" stroke="none" fill="#3F80CD" fill-rule="evenodd" /><path id="67" transform="matrix(1 0 0 -1 0 540)" clip-path="url(#30)" d="M0 141.24L720 141.24L720 141.24L720 540L720 540L0 540" stroke="none" fill="#9BC1FF" fill-rule="evenodd" /><path id="68" transform="matrix(1 0 0 -1 0 540)" d="M68.4 131.54C 68.4 136.9 72.743 141.24 78.1 141.24L78.1 141.24L512.3 141.24C 517.66 141.24 522 136.9 522 131.54L522 131.54L522 92.74C 522 87.383 517.66 83.04 512.3 83.04L512.3 83.04L78.1 83.04C 72.743 83.04 68.4 87.383 68.4 92.74z" stroke="none" fill="none" /><g clip-path="url(#31)"></g></g></g></svg>